<?xml version="1.0" encoding="UTF-8"?><svg xmlns="http://www.w3.org/2000/svg" width="1920" height="1080" viewBox="0 0 1920 1080"><defs><style>.cls-1{letter-spacing:0em;}.cls-2{letter-spacing:0em;}.cls-3{fill:#ffa7a7;}.cls-3,.cls-4,.cls-5,.cls-6,.cls-7,.cls-8,.cls-9{stroke-width:0px;}.cls-4{fill:#b3b3b3;}.cls-10{opacity:.62;stroke:#c15257;stroke-width:3px;}.cls-10,.cls-11{fill:none;stroke-miterlimit:10;}.cls-5{fill:#e5e5e5;}.cls-6{fill:#999;}.cls-7{fill:#a8a8a8;}.cls-12{fill:#8bbcd1;font-family:MyriadPro-Regular, 'Myriad Pro';font-size:56.91px;}.cls-11{stroke:#e5e5e5;stroke-width:8px;}.cls-8{fill:#c14c52;opacity:.17;}.cls-9{fill:#6eebff;}</style></defs><g id="LES_CAM"><g id="Cam.A"><g id="Scene"><g id="DJ"><path class="cls-5" d="M1001.8,881.03c-39.6-11.34-73.49-13.82-112.69-26.43-9.47-3.05-19.53-11.18-24.43-19.77-6.24-10.94-13.86-28.37-9.3-36.34,5.47-9.54,22.71-13.95,35.7-17.07,13.02-3.13,24.98-2.38,32.3,15.13,12.25,29.3,36.7,44.84,69.01,44.77,31.03-.07,52.47-15.93,68.48-42.16,4.9-8.03,17.66-18.44,24.18-16.85,14.65,3.57,31.43,11.18,39.85,22.65,4.88,6.65-.91,31.09-8.56,35.27-29.17,15.9-60.99,26.96-91.98,39.42-4.34,1.75-9.59,1.24-14.41,1.77-5.08-.59-8.14-.39-8.14-.39Z"/><path class="cls-5" d="M927.48,770.15c-2.54-35.36,25.46-67.21,60.69-69.02,35.65-1.84,66.89,26.13,68.57,61.4,1.64,34.43-24.99,64.54-59.56,67.33-35.87,2.89-67.12-23.88-69.7-59.71Z"/><path class="cls-5" d="M885.78,797.22c-7.11,1.63-19.02,4.35-33.63,7.69-4.34-47.45,5.13-90.38,27.51-129.85,3.88-6.85,19.01-7.29,28.94-10.69,2.92,9.19,10.01,19.42,8.04,27.4-8.5,34.38-19.66,68.11-30.87,105.46Z"/><path class="cls-5" d="M1092.27,803.49c7.08,1.31,18.95,3.51,33.5,6.2,2.24-47.6-8.95-90.07-32.72-128.52-4.12-6.67-19.06-6.45-29.01-9.41-2.49,9.31-9.04,19.84-6.75,27.73,9.86,33.98,22.32,67.17,34.98,104Z"/></g><g id="TABLE"><rect class="cls-11" x="549.19" y="390.24" width="836.57" height="385.97"/><rect class="cls-11" x="612.82" y="436.44" width="82.02" height="120.51" transform="translate(-166.99 517.96) rotate(-38.71)"/><rect class="cls-11" x="1228.36" y="435.98" width="88.77" height="120.51" transform="translate(864.09 -807.28) rotate(51.29)"/></g><g id="MIX"><path class="cls-5" d="M851.91,523.77c2.14-5.97,6.45-8.08,12.69-8.07,80.57.1,161.15.07,241.72.08,1.73,0,3.52-.01,5.18.39,4.63,1.13,7.47,5.23,7.48,10.61.02,16,0,31.99,0,47.99,0,25.82,0,51.64,0,77.46,0,8.27-3.81,12.06-12.14,12.06-80.75,0-161.49-.03-242.24.07-6.24,0-10.54-2.1-12.69-8.07v-132.52ZM956.29,520.59c-1.15,0-2.01,0-2.86,0-29.81,0-59.63,0-89.44,0-5.5,0-7.3,1.82-7.3,7.37,0,41.38,0,82.76,0,124.14,0,5.54,1.81,7.36,7.31,7.36,29.81,0,59.63,0,89.44,0,.92,0,1.84,0,2.85,0v-138.87ZM1014.63,659.34c.96.05,1.81.12,2.65.12,29.99,0,59.97,0,89.96,0,5,0,6.95-1.92,6.95-6.93.01-41.64.01-83.28,0-124.92,0-5.13-1.94-7.01-7.13-7.01-29.9,0-59.8,0-89.7,0-.91,0-1.83,0-2.74,0v138.75ZM1009.39,659.33v-138.6h-47.95v138.6h47.95Z"/><path class="cls-5" d="M949.84,571.8c-.46,24.39-20.22,43.8-44.18,43.41-24.6-.4-43.84-20.24-43.35-44.68.48-23.91,20.59-43.36,44.22-42.77,24.34.6,43.75,20.35,43.3,44.04ZM944.96,571.48c-.02-21.52-17.49-38.95-39-38.89-21.38.05-38.8,17.43-38.89,38.8-.08,21.42,17.46,39.01,38.92,39.03,21.51.02,38.98-17.44,38.96-38.93Z"/><path class="cls-5" d="M873.32,639.41c1.99,0,3.98-.02,5.97,0,1.88.02,2.88.96,2.87,2.9,0,2.77,0,5.54,0,8.31,0,1.92-1.04,2.91-2.88,2.94-3.98.06-7.97.05-11.95,0-1.76-.03-2.72-1.08-2.76-2.81-.06-2.86-.06-5.72,0-8.57.04-1.9,1.14-2.79,3.03-2.78,1.9.01,3.81,0,5.72,0,0,0,0,0,0,0ZM869.58,648.46h7.63v-4.05h-7.63v4.05Z"/><path class="cls-5" d="M915.52,639.4c1.91,0,3.82,0,5.74,0,1.93,0,2.89,1.03,2.91,2.91.03,2.78.03,5.56,0,8.34-.03,1.89-1.05,2.91-2.93,2.92-3.91.03-7.82.05-11.73-.01-1.85-.03-2.89-1-2.87-2.95.02-2.78.02-5.56,0-8.34-.01-1.97,1.03-2.85,2.91-2.87,2-.02,4,0,6,0ZM911.46,648.53h7.63v-4.1h-7.63v4.1Z"/><path class="cls-5" d="M873.45,622.33c1.91,0,3.81.02,5.72,0,1.89-.02,2.96.83,2.98,2.77.03,2.86.03,5.72,0,8.58-.02,1.77-.96,2.75-2.74,2.77-3.98.03-7.97,0-11.95.01-1.96,0-2.85-1.11-2.89-2.92-.06-2.77-.06-5.55,0-8.32.04-2,1.12-2.96,3.17-2.9,1.9.06,3.81.01,5.72.01ZM877.27,627.25h-7.65v4.26h7.65v-4.26Z"/><path class="cls-5" d="M915.27,636.46c-1.9,0-3.81,0-5.71,0-1.89,0-2.93-.88-2.93-2.82,0-2.86-.01-5.71,0-8.57,0-1.79.93-2.72,2.73-2.73,3.98,0,7.96,0,11.95-.01,1.81,0,2.78.93,2.82,2.67.07,2.94.07,5.89,0,8.83-.05,1.75-1.09,2.64-2.87,2.63-1.99-.01-3.98,0-5.97,0ZM911.48,631.48h7.62v-4.19h-7.62v4.19Z"/><path class="cls-5" d="M894.48,639.4c1.91,0,3.82,0,5.73,0,1.88.01,2.92.89,2.91,2.86-.01,2.78-.01,5.56,0,8.34,0,2.1-1.16,2.97-3.11,2.98-3.73.02-7.47,0-11.2,0-2.13,0-3.22-1.01-3.2-3.18.02-2.61.03-5.21,0-7.82-.03-2.15.96-3.23,3.14-3.2,1.91.02,3.82,0,5.73,0ZM898.23,644.44h-7.62v4.08h7.62v-4.08Z"/><path class="cls-5" d="M929.84,639.11c.76-1.37,1.25-3.1,2.4-4.08,1.39-1.18,1.74-2.35,1.66-4-.1-1.99-.08-3.99,0-5.98.07-1.55.84-2.96,2.5-2.56.92.22,1.89,1.55,2.2,2.58.38,1.27.16,2.75.11,4.13-.09,2.43,0,4.52,2.21,6.41,2.38,2.02,2.03,6.06-.48,8.07-1.54,1.23-1.81,2.54-1.73,4.24.05,1.12.23,2.36-.15,3.34-.34.88-1.48,2.15-2.09,2.06-.92-.13-1.74-1.26-2.5-2.06-.23-.24-.09-.84-.09-1.27-.02-2.61.51-5.28-2.36-7.11-.88-.56-1.04-2.27-1.67-3.78Z"/><path class="cls-5" d="M894.44,622.33c1.91,0,3.82.02,5.74,0,1.91-.02,2.94.85,2.94,2.81,0,2.87.01,5.74,0,8.61-.01,1.82-1,2.7-2.78,2.71-3.91.02-7.82,0-11.73.01-1.92,0-2.93-.92-2.95-2.83-.03-2.87-.04-5.74,0-8.61.03-1.78.98-2.71,2.8-2.69,2,.01,4,0,6,0ZM898.25,627.26h-7.63v4.24h7.63v-4.24Z"/><path class="cls-5" d="M1064.35,615.22c-24.07.12-43.86-19.58-43.91-43.69-.05-24.06,19.73-43.82,43.83-43.79,24.05.03,43.63,19.53,43.75,43.57.12,24.1-19.46,43.78-43.67,43.9ZM1025.26,571.54c.08,21.49,17.62,38.93,39.09,38.87,21.45-.06,39.07-17.78,38.87-39.1-.2-21.53-17.77-38.88-39.23-38.73-21.39.15-38.81,17.68-38.73,38.96Z"/><path class="cls-5" d="M1054.01,653.58c-1.91,0-3.83.04-5.74-.02-1.85-.06-2.89-.99-2.88-2.94.02-2.78.02-5.56,0-8.35-.02-1.98,1.02-2.86,2.9-2.87,3.91-.02,7.82,0,11.73,0,1.94,0,2.89,1.03,2.92,2.9.04,2.78.04,5.56,0,8.35-.03,2.04-1.21,2.95-3.19,2.94-1.91,0-3.82,0-5.74,0ZM1057.98,644.44h-7.62v4.04h7.62v-4.04Z"/><path class="cls-5" d="M1075.27,653.59c-1.91,0-3.81,0-5.72,0-2.09-.01-3.24-.99-3.23-3.17.01-2.6.03-5.2,0-7.8-.03-2.14.93-3.24,3.11-3.23,3.81,0,7.62.01,11.43,0,2.18,0,3.13,1.11,3.11,3.23-.03,2.6,0,5.2,0,7.8,0,2.16-1.14,3.16-3.24,3.16-1.82,0-3.64,0-5.46,0ZM1078.98,644.42h-7.67v4.12h7.67v-4.12Z"/><path class="cls-5" d="M1054.19,622.33c1.9,0,3.81.04,5.71-.01,1.93-.05,2.97.9,3.01,2.76.07,2.86.07,5.72,0,8.57-.05,1.86-1.05,2.83-2.98,2.81-3.9-.03-7.79,0-11.69-.01-1.75,0-2.81-.81-2.84-2.64-.03-2.94-.03-5.89,0-8.83.02-1.82,1.04-2.65,2.81-2.64,1.99,0,3.98,0,5.97,0ZM1057.97,627.27h-7.63v4.22h7.63v-4.22Z"/><path class="cls-5" d="M1075.15,636.46c-1.91,0-3.81-.02-5.72,0-2.02.02-3.08-.95-3.1-2.98-.02-2.77-.03-5.55,0-8.32.03-1.89,1.01-2.85,2.94-2.84,3.9.02,7.8.02,11.7,0,1.93-.01,2.93.94,2.97,2.82.05,2.77.04,5.55,0,8.32-.02,2-1.05,3.02-3.08,3-1.91-.02-3.81,0-5.72,0ZM1078.95,627.31h-7.58v4.24h7.58v-4.24Z"/><path class="cls-5" d="M1033.1,639.39c1.91,0,3.82.01,5.73,0,2-.01,3.09.87,3.07,2.97-.03,2.69-.04,5.39,0,8.08.03,2.05-.94,3.11-2.96,3.13-3.82.03-7.64.02-11.47,0-1.98,0-3.08-.94-3.07-3.02.02-2.69.04-5.39,0-8.08-.04-2.24,1.11-3.13,3.22-3.1,1.82.03,3.65,0,5.47,0ZM1036.99,644.44h-7.62v4.1h7.62v-4.1Z"/><path class="cls-5" d="M1102.98,636.69c-.9,1.49-1.83,2.98-2.68,4.5-.54.97-1.26,1.98-1.36,3.02-.22,2.15-.06,4.33-.09,6.49-.02,1.6-.75,2.8-2.44,2.75-1.66-.05-2.35-1.28-2.38-2.86-.02-1.47-.04-2.95,0-4.42.05-2.24.02-4.16-2.1-5.92-2.44-2.03-2.15-6.02.38-8.06,1.53-1.24,1.81-2.52,1.73-4.22-.06-1.21-.24-2.54.19-3.59.34-.84,1.51-1.87,2.29-1.86.76.01,1.65,1.15,2.2,1.98.33.49.18,1.35.14,2.04-.13,2.36-.15,4.51,2.21,6.14.95.66,1.18,2.38,1.91,4.01Z"/><path class="cls-5" d="M1033.27,636.46c-1.91,0-3.83-.03-5.74,0-2.02.04-3.12-.84-3.11-2.93,0-2.78,0-5.56,0-8.35,0-1.91.93-2.88,2.88-2.87,3.91.02,7.82.02,11.73,0,1.97,0,2.85,1,2.85,2.9,0,2.78,0,5.56,0,8.35,0,1.93-.95,2.89-2.88,2.89-1.91,0-3.82,0-5.74,0ZM1029.29,631.49h7.63v-4.21h-7.63v4.21Z"/><path class="cls-5" d="M985.38,632.72c4.61,0,9.21.05,13.82-.02,2.41-.04,3.51.91,3.48,3.39-.07,5.47-.05,10.95,0,16.43.02,2.32-1.08,3.28-3.35,3.27-9.3-.04-18.6-.03-27.9,0-2.16,0-3.21-.97-3.2-3.15.02-5.56.04-11.13,0-16.69-.02-2.35,1.08-3.27,3.35-3.24,4.61.06,9.21.02,13.82.02ZM997.75,637.67h-24.58v13.14h24.58v-13.14Z"/><path class="cls-5" d="M982.99,620.75c0-2.62.27-5.06-2.29-7.18-2.31-1.91-1.84-5.94.61-7.86,1.59-1.24,1.73-2.57,1.69-4.25-.02-1.21-.2-2.54.24-3.59.35-.84,1.48-1.77,2.34-1.85.66-.06,1.51,1.09,2.11,1.83.27.34.19,1,.19,1.52-.01,2.63-.22,5.03,2.33,7.15,2.3,1.91,1.75,5.86-.68,7.86-1.42,1.16-1.74,2.37-1.66,4.01.1,2.08.29,4.21-.09,6.22-.2,1.07-1.53,1.92-2.34,2.87-.82-.95-1.97-1.78-2.36-2.88-.41-1.15-.09-2.57-.09-3.87Z"/><path class="cls-5" d="M1002.65,603.86c0,1.13.08,2.26-.02,3.39-.16,1.91.26,3.3,1.89,4.68,2.69,2.29,2.28,6.22-.29,8.78-.79.79-1.37,2.05-1.52,3.17-.22,1.62-.5,3.08-2.37,3.13-2.07.06-2.35-1.47-2.54-3.2-.12-1.05-.66-2.27-1.41-2.99-2.97-2.83-2.94-6.78.09-9.59.71-.65,1.28-1.8,1.33-2.75.17-3.12.09-6.25.06-9.38-.02-1.66.42-3.12,2.29-3.15,2-.04,2.55,1.44,2.51,3.22-.03,1.56,0,3.13,0,4.69Z"/><path class="cls-5" d="M964.09,612.88c.85-1.54,1.3-3.35,2.46-4.24,1.59-1.23,1.74-2.58,1.69-4.26-.06-1.91-.02-3.82,0-5.73.02-1.63.89-2.92,2.47-2.61.9.18,1.89,1.56,2.19,2.59.38,1.28.13,2.75.1,4.14-.06,2.41-.06,4.53,2.22,6.4,2.32,1.9,2.12,6.04-.29,7.88-1.98,1.51-1.9,3.22-1.95,5.21-.05,1.95.74,4.78-2.46,4.7-2.93-.07-2.3-2.76-2.26-4.66.04-2.12-.07-3.93-2.05-5.41-1.03-.77-1.35-2.47-2.12-4.01Z"/><path class="cls-5" d="M983,578.92c0-2.08-.04-4.16.01-6.23.04-1.61.56-3,2.48-2.98,1.77.02,2.35,1.32,2.37,2.83.05,4.41.05,8.83,0,13.24-.02,1.5-.56,2.81-2.35,2.85-1.94.04-2.47-1.33-2.51-2.95-.05-2.25-.01-4.5-.01-6.75Z"/><path class="cls-5" d="M973,579.12c0,2.25,0,4.5,0,6.75,0,1.63-.71,2.77-2.4,2.75-1.68-.02-2.37-1.18-2.37-2.8,0-4.42,0-8.83,0-13.25,0-1.58.56-2.81,2.29-2.87,1.9-.06,2.49,1.22,2.48,2.92-.01,2.16,0,4.33,0,6.49Z"/><path class="cls-5" d="M1002.65,579.21c0,2.25.02,4.5,0,6.75-.02,1.63-.85,2.92-2.46,2.57-.9-.2-2.15-1.61-2.19-2.53-.22-4.58-.22-9.18,0-13.76.04-.89,1.46-1.72,2.24-2.57.8.84,2.16,1.59,2.3,2.53.34,2.29.11,4.66.11,7Z"/><path class="cls-5" d="M996.76,550.25c1.74-1.11,2.84-2.34,3.62-2.17.9.2,2.12,1.66,2.09,2.54-.03.81-1.48,2.12-2.38,2.19-.82.06-1.73-1.26-3.33-2.56Z"/><path class="cls-5" d="M974.12,550.59c-1.7,1.14-2.74,2.38-3.54,2.24-.89-.16-2.2-1.59-2.16-2.42.03-.86,1.39-2.22,2.29-2.32.81-.09,1.77,1.23,3.41,2.5Z"/><path class="cls-5" d="M1000.9,558.51c.58.99,1.7,2.06,1.58,2.96-.13.91-1.49,1.64-2.32,2.45-.75-.87-2.03-1.7-2.1-2.62-.07-.89,1.1-1.89,1.73-2.83.37.02.74.03,1.12.05Z"/><path class="cls-5" d="M974.12,561.5c-1.69,1.15-2.73,2.4-3.52,2.26-.9-.16-2.2-1.58-2.17-2.42.03-.86,1.39-2.23,2.28-2.33.81-.09,1.78,1.23,3.41,2.5Z"/><path class="cls-5" d="M974.12,539.44c-1.63,1.24-2.59,2.53-3.4,2.44-.9-.1-2.3-1.45-2.31-2.26,0-.87,1.26-2.29,2.16-2.46.79-.15,1.84,1.11,3.55,2.28Z"/><path class="cls-5" d="M1000.94,536.68c.57.99,1.68,2.08,1.55,2.96-.14.9-1.52,1.61-2.36,2.4-.74-.88-2-1.71-2.07-2.64-.06-.88,1.12-1.85,1.76-2.79.37.02.75.04,1.12.06Z"/><path class="cls-5" d="M988.97,528.82c-1.74,1.09-2.81,2.27-3.63,2.12-.88-.16-2.16-1.62-2.11-2.44.05-.85,1.46-2.19,2.34-2.25.84-.06,1.77,1.27,3.4,2.57Z"/><path class="cls-5" d="M1000.74,525.71c.63.95,1.82,1.94,1.75,2.83-.08.91-1.39,1.72-2.16,2.57-.81-.81-2.14-1.55-2.27-2.45-.12-.88.99-1.94,1.56-2.92.37,0,.75-.02,1.12-.03Z"/><path class="cls-5" d="M970.04,531.46c-.6-.96-1.76-1.99-1.64-2.85.13-.93,1.45-1.7,2.25-2.54.78.86,2.06,1.65,2.18,2.59.1.86-1.06,1.88-1.66,2.83-.38,0-.75-.01-1.13-.02Z"/><path class="cls-5" d="M988.94,561.29c-1.62,1.24-2.58,2.55-3.41,2.47-.89-.09-2.29-1.46-2.3-2.29-.01-.86,1.27-2.31,2.16-2.46.81-.14,1.86,1.12,3.55,2.28Z"/><path class="cls-5" d="M988.97,539.54c-1.68,1.19-2.68,2.45-3.5,2.34-.89-.12-2.25-1.51-2.24-2.34.01-.85,1.34-2.25,2.23-2.37.82-.11,1.83,1.16,3.51,2.37Z"/><path class="cls-5" d="M985.03,553.36c-.66-.93-1.89-1.9-1.83-2.77.07-.94,1.36-1.79,2.12-2.68.83.81,2.19,1.53,2.35,2.45.15.87-.98,1.95-1.54,2.94-.36.02-.73.04-1.09.05Z"/><path class="cls-5" d="M871.55,571.53c-.04-18.5,14.5-33.67,33.1-34.54,1.75-.08,3.53-.03,3.65,2.26.13,2.33-1.73,2.52-3.42,2.61-9.02.44-16.51,4.1-22.02,11.2-7.2,9.27-8.67,19.64-3.89,30.38,4.81,10.81,13.45,16.69,25.32,17.65.52.04,1.04.06,1.56.13,1.57.22,2.9,1.03,2.36,2.68-.3.91-1.81,2.1-2.69,2.04-3.27-.23-6.61-.57-9.73-1.51-14.4-4.35-24.2-17.8-24.23-32.88Z"/><path class="cls-5" d="M905.99,559.64c6.59-.02,12,5.34,11.98,11.87-.02,6.55-5.41,11.87-12.01,11.84-6.49-.04-11.76-5.27-11.81-11.74-.06-6.58,5.26-11.95,11.84-11.97ZM913.07,571.6c.05-3.98-3.04-7.14-6.99-7.16-3.89-.02-7.17,3.23-7.15,7.08.02,3.75,3.18,6.96,6.94,7.04,3.96.08,7.15-3,7.2-6.96Z"/><path class="cls-5" d="M1029.74,571.41c.04-18.31,14.15-33.15,32.72-34.39,1.79-.12,3.82-.28,4.05,2.1.25,2.64-1.96,2.63-3.79,2.77-13.82,1.08-24.31,9.9-27.45,23.1-4.14,17.4,8.98,35.03,26.83,36.08,1.92.11,4.6-.23,4.39,2.7-.2,2.89-2.75,2.28-4.71,2.11-18.37-1.58-32.07-16.34-32.04-34.47Z"/><path class="cls-5" d="M1064.29,559.64c6.58.03,11.96,5.45,11.88,11.97-.08,6.55-5.5,11.81-12.1,11.74-6.46-.07-11.75-5.4-11.77-11.83-.02-6.52,5.42-11.9,11.99-11.87ZM1064.29,578.56c3.89-.03,7.13-3.33,7.05-7.18-.08-3.89-3.37-7.02-7.29-6.94-3.8.08-6.89,3.24-6.9,7.04,0,3.91,3.21,7.1,7.13,7.07Z"/></g></g><g id="Cam_scene"><g id="Epaule"><path class="cls-9" d="M1777.93,866.81c-7.21,15.54-14.42,31.08-21.64,46.61-1.42,3.05-4.35,4.6-7.49,3.94-.59-.12-1.17-.34-1.71-.6-4.76-2.19-9.51-4.4-14.26-6.62-3.83-1.79-5.12-5.46-3.41-9.3,1.89-4.25,3.06-8.68,2.74-13.39-.14-2.13-.83-4.09-2-5.89-2.1-3.24-4.13-6.52-6.22-9.76-.32-.5-.37-.88-.12-1.43,3.33-7.12,6.64-14.25,9.93-21.39.24-.52.54-.72,1.1-.8,3.55-.46,7.09-1.06,10.65-1.42,4.55-.46,8.07-2.62,10.81-6.15,1.1-1.41,2.21-2.85,3.04-4.42,1.29-2.43,1.03-5.04-2.14-6.51-4.6-2.14-9.22-4.26-13.81-6.42-1.14-.54-2.27-1.15-3.32-1.85-3.88-2.61-4.93-6.52-2.96-10.77,1.44-3.1,2.94-6.18,4.3-9.31,1.36-3.11,3.76-4.88,6.92-5.77,2.35-.66,4.74-.63,7.14-.35,4,.46,7.82,1.61,11.58,3,10.05,3.72,19.66,8.44,29.36,12.96,3.47,1.62,4.77,5.46,3.15,8.95-7.22,15.56-14.45,31.13-21.67,46.69ZM1772.11,830.24c-1.76,3.8-3.53,7.6-5.29,11.4-.79,1.71-.29,3.1,1.4,3.89,2.32,1.09,4.64,2.17,6.98,3.24,1.76.81,3.13.3,3.94-1.44,3.52-7.58,7.04-15.15,10.55-22.73.83-1.78.31-3.15-1.49-3.99-2.27-1.06-4.55-2.12-6.83-3.17-1.79-.83-3.17-.33-4,1.46-1.76,3.77-3.51,7.55-5.26,11.33ZM1728.71,873.25c1.01,1.51,1.97,3.05,3.04,4.51.56.77,1.32,1.4,2.01,2.06,6.27,5.98,13.46,10.64,21.08,14.68,1.1.59,2.27,1.06,3.46,1.61-.32-1.08-.67-2.17-.95-3.28-.14-.53-.43-.82-.9-1.07-5.37-2.83-10.56-5.95-15.5-9.48-4.12-2.94-8.15-6.01-12.24-9.04ZM1775.56,859.27c-.32-.15-.44-.21-.56-.26-6.36-2.68-12.83-5.05-19.6-6.5-5.01-1.07-10.04-2.17-15.21-1.17-.46.09-.93.11-1.5.18.14.11.16.14.18.14,11.05,2.08,21.88,4.95,32.31,9.19.2.08.5.09.7.01,1.17-.48,2.32-1.01,3.67-1.6ZM1750.12,815.54c1.15-2.48.09-5.42-2.38-6.56-2.43-1.13-5.35-.06-6.5,2.37-1.17,2.49-.14,5.41,2.33,6.57,2.47,1.16,5.4.1,6.56-2.38Z"/><path class="cls-9" d="M1690.56,806.28c1.22.57,2.39,1.06,3.5,1.65.38.2.68.64.88,1.04.85,1.72,2.25,2.68,3.98,3.47,10.51,4.8,20.98,9.7,31.46,14.57l.89.41c-8.63,18.59-17.24,37.14-25.9,55.79l-.94-.44c-10.98-5.1-21.97-10.19-32.94-15.31-.63-.29-1.22-.47-1.9-.25-2.01.65-3.89.36-5.65-.78-.32-.2-.68-.33-1.07-.51,9.24-19.9,18.44-39.72,27.69-59.65ZM1696.74,874.93l.93-2c-5.05-2.35-10.06-4.67-15.09-7.01-.32.69-.61,1.32-.93,2,5.03,2.34,10.02,4.65,15.09,7.01ZM1685.59,859.42c5.08,2.36,10.09,4.68,15.11,7.01.32-.69.61-1.3.92-1.97-5.04-2.34-10.05-4.67-15.11-7.01l-.92,1.97ZM1687.53,855.2c5.09,2.36,10.1,4.69,15.1,7.01.32-.7.62-1.33.91-1.97-5.06-2.35-10.07-4.68-15.1-7.01-.32.68-.61,1.3-.91,1.97ZM1705.53,856.02c-5.08-2.36-10.09-4.68-15.11-7.01-.32.69-.62,1.33-.92,1.99,5.06,2.35,10.07,4.67,15.11,7.01.31-.67.6-1.29.92-1.99ZM1693.41,842.56c5.09,2.36,10.08,4.68,15.08,7,.33-.7.63-1.36.93-2-5.06-2.35-10.05-4.67-15.08-7-.32.68-.61,1.32-.93,2ZM1695.36,838.32c5.09,2.36,10.1,4.69,15.1,7.01.32-.7.62-1.34.92-1.98-5.06-2.35-10.07-4.67-15.1-7.01-.31.68-.6,1.29-.92,1.98ZM1707.48,851.79c-5.08-2.36-10.08-4.68-15.1-7.01l-.93,2c5.05,2.34,10.05,4.67,15.1,7.01l.93-2ZM1719.27,826.44c-5.08-2.36-10.09-4.68-15.1-7.01l-.92,1.99,15.1,7.01.92-1.99ZM1701.26,825.62c5.09,2.36,10.1,4.69,15.1,7.01.32-.7.62-1.33.91-1.97-5.06-2.35-10.07-4.68-15.1-7.01l-.91,1.97ZM1699.3,829.85c5.09,2.36,10.09,4.69,15.09,7.01l.91-1.96c-5.06-2.35-10.07-4.67-15.09-7.01-.32.68-.6,1.3-.91,1.96ZM1713.37,839.14l-15.1-7.01-.92,1.98c5.06,2.35,10.07,4.67,15.1,7.01.31-.67.6-1.29.92-1.98ZM1684.54,861.68l-.93,1.99c5.05,2.34,10.06,4.67,15.09,7l.93-1.99c-5.04-2.34-10.03-4.65-15.09-7Z"/><path class="cls-9" d="M1729.1,891.33c-2.75-.41-5.39-.78-8.02-1.21-.77-.13-1.55-.37-2.27-.69-2.97-1.34-5.91-2.73-8.86-4.1-.27-.12-.54-.25-.9-.42.17-.38.31-.67.45-.96,8.32-17.91,16.63-35.83,24.95-53.74.58-1.24.41-1.12,1.59-.58,2.88,1.33,5.77,2.65,8.63,4.02.73.35,1.44.81,2.07,1.32,1.82,1.51,3.6,3.08,5.39,4.63.2.17.39.37.62.59-1.82,1.82-3.88,3.07-6.41,3.43-4.45.63-8.9,1.23-13.36,1.82-.64.08-1,.3-1.29.92-3.71,8.04-7.44,16.07-11.19,24.09-.29.62-.28,1.07.09,1.65,2.35,3.64,4.62,7.32,6.98,10.95,1.65,2.54,1.87,5.29,1.51,8.29Z"/><path class="cls-9" d="M1682.32,800.86c2.41,1.12,4.73,2.2,7.11,3.3-9.61,20.71-19.21,41.38-28.84,62.12-2.35-1.09-4.71-2.19-7.11-3.3,9.61-20.71,19.21-41.39,28.84-62.12Z"/><path class="cls-9" d="M1781.06,863.84c1.77.82,3.49,1.62,5.31,2.46-.87,1.53-1.26,3.24-2.5,4.55-6.6,7-10.33,15.3-11.44,24.86-.18,1.52-1.12,2.95-1.72,4.47l-5.37-2.49c5.23-11.26,10.45-22.52,15.71-33.85Z"/></g><polygon id="B" class="cls-8" points="1638.91 859.85 1038.94 653.57 1037.58 525.71 1669.85 794.01 1638.91 859.85"/><g id="Face"><path class="cls-9" d="M603.72,79.92c15.05-8.19,30.09-16.38,45.14-24.57,2.96-1.61,6.24-1.11,8.36,1.29.4.45.73.97,1.02,1.5,2.52,4.6,5.02,9.2,7.52,13.81,2.01,3.71.86,7.43-2.8,9.51-4.05,2.29-7.63,5.15-10.17,9.12-1.15,1.79-1.77,3.77-1.9,5.92-.25,3.85-.56,7.7-.81,11.55-.04.59-.22.93-.76,1.22-6.91,3.74-13.82,7.5-20.72,11.27-.5.27-.87.26-1.36-.01-3.13-1.74-6.33-3.37-9.41-5.2-3.93-2.34-8.04-2.69-12.35-1.5-1.72.48-3.47.98-5.08,1.74-2.48,1.18-3.83,3.43-2.16,6.5,2.42,4.46,4.87,8.91,7.27,13.38.6,1.11,1.14,2.27,1.56,3.46,1.56,4.41.08,8.17-4.04,10.41-3,1.64-6.04,3.22-9,4.92-2.94,1.69-5.93,1.69-8.99.52-2.28-.87-4.19-2.32-5.95-3.97-2.94-2.75-5.33-5.95-7.52-9.3-5.86-8.97-10.77-18.49-15.88-27.89-1.83-3.37-.58-7.22,2.8-9.07,15.07-8.21,30.14-16.41,45.21-24.61ZM586.62,112.77c3.68-2,7.36-4,11.04-6.01,1.65-.9,2.08-2.31,1.19-3.96-1.22-2.26-2.44-4.51-3.68-6.76-.93-1.7-2.34-2.11-4.02-1.19-7.34,3.99-14.68,7.98-22.01,11.98-1.72.94-2.13,2.34-1.18,4.09,1.2,2.21,2.39,4.41,3.6,6.61.95,1.73,2.35,2.15,4.08,1.21,3.66-1.99,7.31-3.98,10.97-5.97ZM647.1,104.05c.09-1.81.24-3.62.24-5.43,0-.95-.22-1.91-.39-2.86-1.48-8.54-4.48-16.57-8.2-24.35-.54-1.13-1.19-2.2-1.82-3.35-.39,1.06-.76,2.14-1.19,3.2-.21.51-.14.91.09,1.4,2.63,5.47,4.94,11.07,6.81,16.84,1.55,4.82,2.97,9.68,4.45,14.56ZM601.13,87.39c.17.31.23.43.29.54,3.52,5.94,7.3,11.7,11.88,16.89,3.39,3.84,6.77,7.72,11.53,10,.42.2.81.46,1.31.74-.05-.17-.05-.21-.06-.22-7.64-8.25-14.63-17-20.49-26.62-.11-.19-.34-.37-.55-.42-1.23-.31-2.46-.57-3.9-.9ZM595.54,137.67c-2.4,1.31-3.29,4.3-1.99,6.69,1.28,2.36,4.26,3.24,6.64,1.97,2.42-1.3,3.33-4.26,2.04-6.67-1.29-2.4-4.28-3.3-6.69-1.99Z"/><path class="cls-9" d="M637.88,180.57c-.64-1.18-1.29-2.27-1.83-3.41-.18-.39-.17-.92-.09-1.36.33-1.89-.21-3.49-1.13-5.15-5.59-10.12-11.08-20.28-16.61-30.44l-.47-.86c18-9.8,35.96-19.57,54.02-29.41l.5.91c5.79,10.64,11.58,21.27,17.36,31.91.33.61.7,1.11,1.37,1.33,2,.67,3.33,2.03,4.08,4,.13.35.36.67.56,1.05-19.27,10.49-38.47,20.94-57.76,31.44ZM673.79,121.73l-1.94,1.05c2.66,4.89,5.3,9.74,7.96,14.62l1.94-1.05-7.96-14.62ZM673.51,140.83c-2.68-4.92-5.32-9.77-7.96-14.63l-1.91,1.04,7.96,14.63,1.91-1.04ZM669.44,143.07c-2.68-4.93-5.32-9.78-7.96-14.62l-1.91,1.04c2.67,4.9,5.31,9.75,7.96,14.62l1.91-1.04ZM655.46,131.69c2.68,4.92,5.32,9.77,7.96,14.63l1.92-1.05-7.96-14.63-1.92,1.05ZM657.19,149.72c-2.68-4.93-5.31-9.76-7.95-14.6l-1.94,1.06c2.67,4.9,5.3,9.73,7.95,14.6l1.94-1.06ZM653.1,151.96c-2.68-4.93-5.32-9.78-7.96-14.63l-1.92,1.04c2.67,4.9,5.31,9.75,7.96,14.63l1.92-1.04ZM651.38,133.93c2.68,4.92,5.31,9.76,7.96,14.62l1.94-1.05c-2.66-4.89-5.3-9.73-7.96-14.62l-1.94,1.05ZM626.81,147.28c2.68,4.92,5.32,9.77,7.96,14.62l1.93-1.05c-2.67-4.91-5.31-9.75-7.96-14.62l-1.93,1.05ZM640.8,158.66l-7.96-14.62-1.91,1.04c2.67,4.9,5.31,9.75,7.96,14.62l1.91-1.04ZM644.89,156.43c-2.68-4.93-5.32-9.77-7.96-14.61l-1.9,1.04c2.67,4.9,5.31,9.75,7.96,14.61l1.9-1.04ZM639.12,140.59c2.68,4.92,5.32,9.77,7.96,14.63l1.91-1.04-7.96-14.63-1.91,1.04ZM675.7,139.64l1.93-1.05c-2.66-4.89-5.3-9.74-7.95-14.61l-1.93,1.05c2.65,4.88,5.28,9.71,7.95,14.61Z"/><path class="cls-9" d="M657.55,89.29c1.96,1.96,3.87,3.83,5.72,5.75.55.56,1.03,1.22,1.41,1.91,1.59,2.84,3.13,5.71,4.68,8.57.14.26.28.52.47.87-.36.2-.65.35-.93.51-17.35,9.44-34.69,18.89-52.04,28.33-1.2.65-1,.66-1.62-.48-1.52-2.78-3.05-5.56-4.54-8.37-.38-.72-.68-1.51-.87-2.3-.56-2.3-1.06-4.62-1.58-6.93-.06-.26-.1-.53-.15-.84,2.54-.38,4.95-.16,7.19,1.06,3.95,2.14,7.89,4.31,11.81,6.49.56.31.99.35,1.58.03,7.77-4.26,15.54-8.49,23.33-12.7.6-.33.86-.69.91-1.38.28-4.32.64-8.63.9-12.95.18-3.02,1.65-5.36,3.72-7.56Z"/><path class="cls-9" d="M641.27,189.83l-3.75-6.88c20.05-10.91,40.07-21.81,60.16-32.75l3.75,6.88c-20.05,10.91-40.08,21.81-60.16,32.75Z"/><path class="cls-9" d="M599.44,80.44l-2.8-5.14c1.61-.71,2.94-1.85,4.71-2.17,9.47-1.69,17.41-6.14,23.99-13.17,1.04-1.12,2.65-1.7,4.05-2.56l2.83,5.2c-10.9,5.93-21.81,11.87-32.78,17.84Z"/></g><polygon id="H" class="cls-8" points="843.94 591.32 651.44 206.95 711.53 173.91 960.69 514.17 843.94 591.32"/><g id="CAM_ABC"><text class="cls-12" transform="translate(1758.3 779.99) scale(.84 1)"><tspan class="cls-2" x="0" y="0">C</tspan><tspan class="cls-1" x="32.61" y="0">am. C</tspan></text><text class="cls-12" transform="translate(677.63 80.44) scale(.84 1)"><tspan class="cls-2" x="0" y="0">C</tspan><tspan class="cls-1" x="32.61" y="0">am. B</tspan></text><text class="cls-12" transform="translate(42.67 207.08) scale(.84 1)"><tspan class="cls-2" x="0" y="0">C</tspan><tspan class="cls-1" x="32.61" y="0">am. A</tspan></text></g><g id="Calque_21"><line class="cls-10" x1="121.92" y1="224.4" x2="293.24" y2="453.78"/></g></g><g id="Infos_lens"><path class="cls-4" d="M1686.13,105.77v4.59h-16.35v-4.59l7.59-7.11c2.62-2.42,4.27-4.1,3.94-6.56-.16-1.07-.78-2.1-2.23-2.62-.94-.32-2.33-.32-3.3.39-1.52,1.13-1.68,2.62-1.71,3.91h-4.52c.03-2.29.42-5.66,3.46-7.76,2.52-1.75,5.66-1.84,8.5-.65,2.65,1.13,4.36,3.72,4.72,6.17.61,4.2-1.78,6.82-5.98,10.89l-3.46,3.33h9.34Z"/><path class="cls-4" d="M1714,105.77v4.59h-16.35v-4.59l7.6-7.11c2.62-2.42,4.27-4.1,3.94-6.56-.16-1.07-.78-2.1-2.23-2.62-.94-.32-2.33-.32-3.3.39-1.52,1.13-1.68,2.62-1.71,3.91h-4.52c.03-2.29.42-5.66,3.46-7.76,2.52-1.75,5.66-1.84,8.5-.65,2.65,1.13,4.36,3.72,4.72,6.17.61,4.2-1.78,6.82-5.98,10.89l-3.46,3.33h9.34Z"/><path class="cls-4" d="M1750.59,110.35v-8.76c0-2.42.26-4.98-1.88-6.17-.84-.45-2.26-.45-3.23.16-1.87,1.16-1.68,3.68-1.68,5.07v9.7h-4.75v-9.31c0-1.78.1-4.43-1.71-5.56-.97-.61-2.46-.61-3.42,0-1.94,1.23-1.71,3.49-1.71,5.24v9.63h-4.75v-19.52h4.52v1.49c2-1.84,4.43-2.36,6.43-1.71,1.29.39,2.29,1.13,3.46,2.42,2.52-3.01,6.43-3.07,8.69-2.2,4.88,1.87,4.82,6.33,4.82,9.53v9.99h-4.78Z"/><path class="cls-4" d="M1781.81,110.35v-8.76c0-2.42.26-4.98-1.88-6.17-.84-.45-2.26-.45-3.23.16-1.87,1.16-1.68,3.68-1.68,5.07v9.7h-4.75v-9.31c0-1.78.1-4.43-1.71-5.56-.97-.61-2.46-.61-3.42,0-1.94,1.23-1.71,3.49-1.71,5.24v9.63h-4.75v-19.52h4.52v1.49c2-1.84,4.43-2.36,6.43-1.71,1.29.39,2.29,1.13,3.46,2.42,2.52-3.01,6.43-3.07,8.69-2.2,4.88,1.87,4.82,6.33,4.82,9.53v9.99h-4.78Z"/><path class="cls-4" d="M1797.01,104.36c.06,2.34,1.08,4.31,2.91,5.64v2.89c-3.2-1.65-5.22-4.85-5.22-8.53,0-3.88,2.04-7.35,5.22-9.08v2.91c-1.84,1.45-3.01,3.68-2.91,6.17Z"/><path class="cls-4" d="M1811.68,99.95l-4.65,10.41h-2.73l4.85-10.44h-4.93v-2.21h7.47v2.25Z"/><path class="cls-4" d="M1825.61,99.95l-4.65,10.41h-2.73l4.85-10.44h-4.93v-2.21h7.47v2.25Z"/><path class="cls-4" d="M1839.08,100.27c1.18,2.04,1.2,4.91,0,6.96-1.65,2.88-4.12,3.12-6.64,3.12h-3.09v-13.2h2.5c2.07,0,5.54.27,7.22,3.12ZM1833.65,108.01c1.49-.11,2.63-.55,3.46-2.18.63-1.23.5-3.41-.18-4.49-1.26-2-3.73-1.87-5.12-1.87v8.58c1.1-.02.78.05,1.84-.03Z"/><path class="cls-4" d="M1846.35,104.36c0,3.68-2,6.88-5.2,8.53v-2.89c1.81-1.33,2.91-3.28,2.91-5.64,0-2.49-1.08-4.72-2.91-6.17v-2.91c3.17,1.73,5.2,5.2,5.2,9.08Z"/><g id="Cadre"><g id="Cadre-2"><path class="cls-4" d="M1548.99,132.07c1.16-.08,1.93-.13,2.91-.2v-63.34c-.78-.1-1.69-.21-3.21-.41.35-3.63.04-7.4,1.2-10.98,2.1-6.48,11.53-11.34,22.39-11.81,6.22-.27,12.51-.05,18.91-.05.15.59.27,1.1.41,1.68h239.42c.15-.56.28-1.07.36-1.39,7.29,0,14.5-.45,21.51.1,11.96.94,20.66,7.68,20.72,15.21.02,2.37,0,4.75,0,7.24-.95.13-1.84.25-2.83.39v63.22c.84.12,1.73.26,3.3.49-.51,3.82-.26,7.79-1.71,11.5-2.63,6.74-12.78,11.24-23.92,11.29-5.58.02-11.16,0-16.95,0-.07-1.24-.94-1.67-3.04-1.67-78.18.04-156.36.04-234.53.04-.68,0-1.36.04-2.19.06-.23.5-.45.99-.57,1.25-7.34,0-14.56.46-21.57-.1-11.76-.94-20.54-7.73-20.6-15.11-.02-2.43,0-4.86,0-7.42ZM1869.51,131.88v-63.45c-1.1-.06-1.95-.11-3.03-.17,0-1.23.01-2.38,0-3.52-.13-8.52-10.55-14.98-24.25-15.02-3.59-.01-7.19,0-10.72,0-.24-.77-.41-1.34-.58-1.86h-239.33c-.19.67-.35,1.24-.53,1.86-3.69,0-7.21,0-10.73,0-13.51.03-24.03,6.5-24.2,14.87-.02,1.2,0,2.41,0,3.67-1.12.08-1.96.13-2.9.2v63.36c.99.11,1.89.22,2.91.33,0,1.26-.02,2.41,0,3.57.17,8.38,10.67,14.84,24.19,14.87,3.6,0,7.2,0,10.81,0,.2.81.35,1.43.5,2.06h239.4c.14-.71.26-1.34.41-2.06,3.9,0,7.61.02,11.33,0,11.21-.08,20.89-4.92,23.11-11.74.71-2.18.6-4.46.88-6.79.81-.05,1.66-.1,2.75-.16Z"/></g><path class="cls-4" d="M1640.19,100c.02,19.15-15.36,34.51-34.55,34.51-19.05,0-34.43-15.36-34.46-34.39-.02-18.98,15.39-34.38,34.45-34.4,19.08-.02,34.54,15.32,34.56,34.29ZM1606.41,115.7c-2.81-1.14-5.78-2.01-8.42-3.47-7.06-3.89-13.99-8.04-20.98-12.07-.51-.29-1.06-.51-1.84-.88-.05,10.91,4.08,19.33,12.54,25.61.44.33,1.42.43,1.89.17,5.74-3.13,11.44-6.35,16.8-9.36ZM1589.84,125.78c.17.29.2.45.3.51,9.02,5.51,18.42,6.13,28.13,2.05.55-.23,1.04-1.3,1.06-2,.17-5.96.24-11.93.32-17.9,0-.44-.11-.88-.26-1.94-2.36,4.51-6.09,6.52-9.87,8.53-5.85,3.11-11.65,6.32-17.47,9.5-.74.4-1.47.83-2.21,1.25ZM1636.4,101.02c.12-.38.23-.57.24-.75.09-10.39-4.21-18.62-12.49-24.8-.49-.37-1.65-.3-2.25.02-3.25,1.71-6.43,3.56-9.64,5.35-2.36,1.32-4.72,2.65-6.99,3.93,2.41.82,4.85,1.29,6.92,2.42,7.51,4.14,14.89,8.51,22.32,12.78.6.35,1.21.67,1.9,1.05ZM1622.39,74.38c-9.52-5.68-18.91-6.51-28.65-2.42-.61.26-1.2,1.37-1.22,2.11-.16,4.75-.17,9.5-.21,14.26-.02,1.62,0,3.24,0,4.87,2.53-3.76,6.18-5.84,9.95-7.83,5.62-2.97,11.16-6.06,16.74-9.1.99-.54,1.98-1.09,3.4-1.87ZM1619.23,92.03c-.17.1-.35.2-.52.3,2.44,3.25,2.08,6.94,2.01,10.59-.13,7.41-.23,14.83-.34,22.24,0,.54.08,1.08.12,1.61.31,0,.47.05.58,0,9.25-5.06,14.31-12.89,15.44-23.29.05-.49-.36-1.28-.79-1.54-5.47-3.34-10.99-6.61-16.5-9.9ZM1591.48,73.1c-9.46,5.31-14.76,12.76-16.08,23.01-.17,1.35.18,2.08,1.35,2.76,5.11,2.97,10.17,6.04,15.25,9.07.31.19.69.27,1.53.6-2.28-3.08-2.54-6.1-2.46-9.27.2-7.77.28-15.55.4-23.32.01-.77,0-1.53,0-2.85ZM1618.96,100.2c.04-7.32-5.79-13.23-13.13-13.29-7.35-.06-13.34,5.75-13.41,13.02-.07,7.43,5.82,13.39,13.24,13.4,7.35,0,13.26-5.82,13.3-13.13Z"/><path class="cls-4" d="M1617.6,100.07c.02,6.5-5.24,11.83-11.75,11.91-6.62.07-12.05-5.24-12.08-11.81-.03-6.57,5.37-11.94,11.98-11.92,6.49.02,11.83,5.35,11.86,11.82ZM1603.64,101.73c-.33-4.06.94-5.13,5-4.23.2-2.87-1.47-4.98-4.15-5.23-2.45-.23-4.64,1.42-5.02,3.78-.45,2.79,1.26,5.13,4.17,5.68ZM1611.09,107.37c.76-1.21,1.49-1.86,1.46-2.48-.03-.52-1.02-1.47-1.43-1.4-.63.11-1.51.89-1.59,1.48-.08.55.75,1.22,1.56,2.39Z"/></g></g><g id="_22_mm"><path class="cls-4" d="M1686.13,105.77v4.59h-16.35v-4.59l7.59-7.11c2.62-2.42,4.27-4.1,3.94-6.56-.16-1.07-.78-2.1-2.23-2.62-.94-.32-2.33-.32-3.3.39-1.52,1.13-1.68,2.62-1.71,3.91h-4.52c.03-2.29.42-5.66,3.46-7.76,2.52-1.75,5.66-1.84,8.5-.65,2.65,1.13,4.36,3.72,4.72,6.17.61,4.2-1.78,6.82-5.98,10.89l-3.46,3.33h9.34Z"/><path class="cls-4" d="M1714,105.77v4.59h-16.35v-4.59l7.6-7.11c2.62-2.42,4.27-4.1,3.94-6.56-.16-1.07-.78-2.1-2.23-2.62-.94-.32-2.33-.32-3.3.39-1.52,1.13-1.68,2.62-1.71,3.91h-4.52c.03-2.29.42-5.66,3.46-7.76,2.52-1.75,5.66-1.84,8.5-.65,2.65,1.13,4.36,3.72,4.72,6.17.61,4.2-1.78,6.82-5.98,10.89l-3.46,3.33h9.34Z"/><path class="cls-4" d="M1750.59,110.35v-8.76c0-2.42.26-4.98-1.88-6.17-.84-.45-2.26-.45-3.23.16-1.87,1.16-1.68,3.68-1.68,5.07v9.7h-4.75v-9.31c0-1.78.1-4.43-1.71-5.56-.97-.61-2.46-.61-3.42,0-1.94,1.23-1.71,3.49-1.71,5.24v9.63h-4.75v-19.52h4.52v1.49c2-1.84,4.43-2.36,6.43-1.71,1.29.39,2.29,1.13,3.46,2.42,2.52-3.01,6.43-3.07,8.69-2.2,4.88,1.87,4.82,6.33,4.82,9.53v9.99h-4.78Z"/><path class="cls-4" d="M1781.81,110.35v-8.76c0-2.42.26-4.98-1.88-6.17-.84-.45-2.26-.45-3.23.16-1.87,1.16-1.68,3.68-1.68,5.07v9.7h-4.75v-9.31c0-1.78.1-4.43-1.71-5.56-.97-.61-2.46-.61-3.42,0-1.94,1.23-1.71,3.49-1.71,5.24v9.63h-4.75v-19.52h4.52v1.49c2-1.84,4.43-2.36,6.43-1.71,1.29.39,2.29,1.13,3.46,2.42,2.52-3.01,6.43-3.07,8.69-2.2,4.88,1.87,4.82,6.33,4.82,9.53v9.99h-4.78Z"/><path class="cls-4" d="M1797.01,104.36c.06,2.34,1.08,4.31,2.91,5.64v2.89c-3.2-1.65-5.22-4.85-5.22-8.53,0-3.88,2.04-7.35,5.22-9.08v2.91c-1.84,1.45-3.01,3.68-2.91,6.17Z"/><path class="cls-4" d="M1811.68,99.95l-4.65,10.41h-2.73l4.85-10.44h-4.93v-2.21h7.47v2.25Z"/><path class="cls-4" d="M1825.61,99.95l-4.65,10.41h-2.73l4.85-10.44h-4.93v-2.21h7.47v2.25Z"/><path class="cls-4" d="M1839.08,100.27c1.18,2.04,1.2,4.91,0,6.96-1.65,2.88-4.12,3.12-6.64,3.12h-3.09v-13.2h2.5c2.07,0,5.54.27,7.22,3.12ZM1833.65,108.01c1.49-.11,2.63-.55,3.46-2.18.63-1.23.5-3.41-.18-4.49-1.26-2-3.73-1.87-5.12-1.87v8.58c1.1-.02.78.05,1.84-.03Z"/><path class="cls-4" d="M1846.35,104.36c0,3.68-2,6.88-5.2,8.53v-2.89c1.81-1.33,2.91-3.28,2.91-5.64,0-2.49-1.08-4.72-2.91-6.17v-2.91c3.17,1.73,5.2,5.2,5.2,9.08Z"/></g></g></g><g id="Cadre_infos"><g id="Cadre-3"><path class="cls-6" d="M1548.99,132.07c1.16-.08,1.93-.13,2.91-.2v-63.34c-.78-.1-1.69-.21-3.21-.41.35-3.63.04-7.4,1.2-10.98,2.1-6.48,11.53-11.34,22.39-11.81,6.22-.27,12.51-.05,18.91-.05.15.59.27,1.1.41,1.68h239.42c.15-.56.28-1.07.36-1.39,7.29,0,14.5-.45,21.51.1,11.96.94,20.66,7.68,20.72,15.21.02,2.37,0,4.75,0,7.24-.95.13-1.84.25-2.83.39v63.22c.84.12,1.73.26,3.3.49-.51,3.82-.26,7.79-1.71,11.5-2.63,6.74-12.78,11.24-23.92,11.29-5.58.02-11.16,0-16.95,0-.07-1.24-.94-1.67-3.04-1.67-78.18.04-156.36.04-234.53.04-.68,0-1.36.04-2.19.06-.23.5-.45.99-.57,1.25-7.34,0-14.56.46-21.57-.1-11.76-.94-20.54-7.73-20.6-15.11-.02-2.43,0-4.86,0-7.42ZM1869.51,131.88v-63.45c-1.1-.06-1.95-.11-3.03-.17,0-1.23.01-2.38,0-3.52-.13-8.52-10.55-14.98-24.25-15.02-3.59-.01-7.19,0-10.72,0-.24-.77-.41-1.34-.58-1.86h-239.33c-.19.67-.35,1.24-.53,1.86-3.69,0-7.21,0-10.73,0-13.51.03-24.03,6.5-24.2,14.87-.02,1.2,0,2.41,0,3.67-1.12.08-1.96.13-2.9.2v63.36c.99.11,1.89.22,2.91.33,0,1.26-.02,2.41,0,3.57.17,8.38,10.67,14.84,24.19,14.87,3.6,0,7.2,0,10.81,0,.2.81.35,1.43.5,2.06h239.4c.14-.71.26-1.34.41-2.06,3.9,0,7.61.02,11.33,0,11.21-.08,20.89-4.92,23.11-11.74.71-2.18.6-4.46.88-6.79.81-.05,1.66-.1,2.75-.16Z"/></g><path class="cls-6" d="M1640.19,100c.02,19.15-15.36,34.51-34.55,34.51-19.05,0-34.43-15.36-34.46-34.39-.02-18.98,15.39-34.38,34.45-34.4,19.08-.02,34.54,15.32,34.56,34.29ZM1606.41,115.7c-2.81-1.14-5.78-2.01-8.42-3.47-7.06-3.89-13.99-8.04-20.98-12.07-.51-.29-1.06-.51-1.84-.88-.05,10.91,4.08,19.33,12.54,25.61.44.33,1.42.43,1.89.17,5.74-3.13,11.44-6.35,16.8-9.36ZM1589.84,125.78c.17.29.2.45.3.51,9.02,5.51,18.42,6.13,28.13,2.05.55-.23,1.04-1.3,1.06-2,.17-5.96.24-11.93.32-17.9,0-.44-.11-.88-.26-1.94-2.36,4.51-6.09,6.52-9.87,8.53-5.85,3.11-11.65,6.32-17.47,9.5-.74.4-1.47.83-2.21,1.25ZM1636.4,101.02c.12-.38.23-.57.24-.75.09-10.39-4.21-18.62-12.49-24.8-.49-.37-1.65-.3-2.25.02-3.25,1.71-6.43,3.56-9.64,5.35-2.36,1.32-4.72,2.65-6.99,3.93,2.41.82,4.85,1.29,6.92,2.42,7.51,4.14,14.89,8.51,22.32,12.78.6.35,1.21.67,1.9,1.05ZM1622.39,74.38c-9.52-5.68-18.91-6.51-28.65-2.42-.61.26-1.2,1.37-1.22,2.11-.16,4.75-.17,9.5-.21,14.26-.02,1.62,0,3.24,0,4.87,2.53-3.76,6.18-5.84,9.95-7.83,5.62-2.97,11.16-6.06,16.74-9.1.99-.54,1.98-1.09,3.4-1.87ZM1619.23,92.03c-.17.1-.35.2-.52.3,2.44,3.25,2.08,6.94,2.01,10.59-.13,7.41-.23,14.83-.34,22.24,0,.54.08,1.08.12,1.61.31,0,.47.05.58,0,9.25-5.06,14.31-12.89,15.44-23.29.05-.49-.36-1.28-.79-1.54-5.47-3.34-10.99-6.61-16.5-9.9ZM1591.48,73.1c-9.46,5.31-14.76,12.76-16.08,23.01-.17,1.35.18,2.08,1.35,2.76,5.11,2.97,10.17,6.04,15.25,9.07.31.19.69.27,1.53.6-2.28-3.08-2.54-6.1-2.46-9.27.2-7.77.28-15.55.4-23.32.01-.77,0-1.53,0-2.85ZM1618.96,100.2c.04-7.32-5.79-13.23-13.13-13.29-7.35-.06-13.34,5.75-13.41,13.02-.07,7.43,5.82,13.39,13.24,13.4,7.35,0,13.26-5.82,13.3-13.13Z"/><path class="cls-6" d="M1617.6,100.07c.02,6.5-5.24,11.83-11.75,11.91-6.62.07-12.05-5.24-12.08-11.81-.03-6.57,5.37-11.94,11.98-11.92,6.49.02,11.83,5.35,11.86,11.82ZM1603.64,101.73c-.33-4.06.94-5.13,5-4.23.2-2.87-1.47-4.98-4.15-5.23-2.45-.23-4.64,1.42-5.02,3.78-.45,2.79,1.26,5.13,4.17,5.68ZM1611.09,107.37c.76-1.21,1.49-1.86,1.46-2.48-.03-.52-1.02-1.47-1.43-1.4-.63.11-1.51.89-1.59,1.48-.08.55.75,1.22,1.56,2.39Z"/></g><g id="Rec"><g id="REC"><path class="cls-7" d="M1431.57,857.83c-49.17,0-98.35,0-147.52,0-5,0-4.86.69-4.74-4.73.05-2.38-1.14-5.4.69-6.98,1.58-1.36,4.44-.42,6.73-.42,93.48.02,186.96.06,280.44.1q4.78,0,4.79-4.81c.03-46.61.06-93.22.07-139.82,0-5.81.07-5.18,5.26-5.19q6.69-.01,6.69,6.67c-.02,50.19-.04,100.39-.07,150.58,0,5.25.33,4.69-4.82,4.69-49.17,0-98.35,0-147.52,0v-.09Z"/><path class="cls-7" d="M491.06,248.8c49.18,0,98.35,0,147.53,0,5.33,0,4.82-.33,4.84,4.68,0,1.79-.02,3.59,0,5.38,0,1.25-.55,1.9-1.84,1.89-1.15-.01-2.3.01-3.46.01-94,0-188,0-282,0-6.18,0-5.44-.67-5.45,5.6-.02,46.48,0,92.97-.01,139.45,0,5.11.49,4.81-4.75,4.75-8-.09-7.17,1.28-7.17-7.09-.02-49.81,0-99.63-.02-149.44,0-5.8,0-5.25,5.2-5.25,49.05,0,98.1,0,147.15,0Z"/><path class="cls-7" d="M491.4,857.93c-49.16,0-98.32,0-147.48,0-5.2,0-4.74.45-4.75-4.74-.02-14.21.13-28.42-.06-42.63-.48-36.47-.35-72.95-.41-109.42,0-5.82.09-5.14,5.29-5.16q6.66-.01,6.66,6.7c.01,46.08.02,92.16.04,138.25,0,5.31-.42,4.88,5.05,4.87,94.48-.04,188.96-.08,283.43-.12.64,0,1.28.04,1.92,0,1.58-.1,2.38.51,2.33,2.2-.07,2.69-.03,5.38-.02,8.06,0,1.26-.56,1.9-1.85,1.88-1.15-.01-2.3.02-3.46.02-48.9,0-97.81,0-146.71,0v.09Z"/><path class="cls-7" d="M1425.55,260.87c-47.25,0-94.51,0-141.76,0-.51,0-1.02.01-1.54,0-2.89-.08-2.91-.08-2.97-3.07-.04-2.05.03-4.1-.01-6.15-.03-1.56.51-2.44,2.21-2.33.89.06,1.79,0,2.69,0,23.31,0,46.62.17,69.92-.06,74.78-.74,149.56-.26,224.33-.46,6.31-.02,5.47-.63,5.48,5.56.04,50.45.06,100.9.07,151.35,0,5.34.55,4.84-5.02,4.87-1.41,0-2.82-.07-4.22.01-2.04.12-2.7-.89-2.69-2.78.03-5.12,0-10.24,0-15.37-.02-41.74-.04-83.49-.06-125.23,0-.77,0-1.54,0-2.3-.02-4.14-.02-4.16-4.27-4.16-34.45.01-68.9.03-103.34.04-12.93,0-25.87,0-38.8,0v.06Z"/><path class="cls-7" d="M420.71,327.61c-11.13,0-22.26,0-33.4,0-.64,0-1.28,0-1.92,0-3.83-.03-3.85-.03-3.86-3.73-.02-7.04,0-14.07,0-21.11,0-4.09-.02-8.19,0-12.28.02-3.4.05-3.43,3.34-3.45,6.01-.03,12.03,0,18.04,0,17.02,0,34.03,0,51.05,0,.64,0,1.28,0,1.92,0q3.86.03,3.88,4.07c0,1.79.04,3.58,0,5.37-.03,1.43.56,2.16,2.03,2.07.13,0,.26,0,.38,0q5.05.32,5.05,5.22c0,3.2-.06,6.4.02,9.59.05,1.88-.49,2.72-2.58,2.77-4.9.1-4.9.21-4.9,4.95q0,6.53-6.44,6.53c-10.88,0-21.75,0-32.63,0ZM420.63,321.48c9.98,0,19.95.02,29.93-.01,2.98,0,3.05-.07,3.06-2.96.04-7.29.04-14.58,0-21.87-.02-2.72-.13-2.84-2.82-2.84-20.08-.03-40.16-.03-60.24,0-2.8,0-2.86.1-2.87,3.18-.04,7.03-.03,14.07,0,21.1.01,3.35.05,3.39,3.4,3.4,9.85.02,19.7,0,29.54,0Z"/><path class="cls-3" d="M1543.37,309.46c.59,10.29-8.5,21.44-21.17,21.08-12.39-.35-20.9-8.88-20.98-21.78-.08-13.39,11.56-21.58,21.14-21.5,10.5.09,21.58,8.91,21.01,22.2Z"/><path class="cls-3" d="M1406.12,311.12c4.64,4.47,6.71,10.34,9.61,16.21-3.89.53-7.3.2-10.7.26-1.38.03-1.97-.92-2.53-1.99-1.6-3.05-3.24-6.09-4.88-9.12-.42-.78-.79-1.67-1.42-2.25-.8-.72-1.59-1.98-2.86-1.52-1.24.45-.67,1.78-.69,2.72-.07,3.19-.11,6.4,0,9.59.07,2.04-.8,2.72-2.73,2.62-2.04-.1-4.09-.09-6.14,0-1.83.08-2.48-.71-2.45-2.5.07-4.73.02-9.46.02-14.19,0-5.75-.04-11.51.02-17.26.02-2.71.11-2.79,2.84-2.81,6.01-.04,12.02-.06,18.03.02,5.94.09,9.28,2.42,10.44,7.09,1.38,5.56-.32,9.37-5.56,12.45-.32.19-.61.44-.96.69ZM1397.04,298.41s0,.05,0,.08c-1.01,0-2.02-.04-3.03.01-.68.04-1.09.45-1.31,1.14-1.33,4.11.39,6.29,4.63,5.75.99-.13,1.98-.44,2.91-.79,1.81-.69,1.82-2.25,1.64-3.81-.17-1.49-1.14-2.18-2.57-2.28-.76-.05-1.52-.07-2.27-.1Z"/><path class="cls-3" d="M1435.4,327.61c-3.84,0-7.68-.07-11.52.03-1.96.05-2.71-.65-2.7-2.66.06-10.49.06-20.99,0-31.48-.01-1.98.69-2.69,2.67-2.68,7.93.07,15.87.08,23.8,0,2.02-.02,2.82.75,2.62,2.7-.01.13,0,.26,0,.38,0,5.2.19,4.61-4.49,4.63-3.58.02-7.17-.05-10.75.03-2.33.05-2.57.38-2.55,2.74.02,2.31.27,2.66,2.63,2.7,3.58.07,7.17-.02,10.75.04,2.78.04,2.82.13,2.93,2.75.03.64.02,1.28,0,1.92-.09,2.77-.09,2.83-2.78,2.87-3.58.06-7.17-.03-10.75.03-2.68.05-2.7.12-2.79,2.9-.13,3.96-.02,4.09,3.94,4.11,3.84.02,7.68-.04,11.52.02,2.57.05,2.93.38,2.98,2.87.13,6.87.08,6.08-5.54,6.09-3.33,0-6.65,0-9.98,0Z"/><path class="cls-3" d="M1467.94,309.54c0,1.41-.12,2.82.02,4.22.33,3.09,2.28,5.25,4.88,5.59,3.56.47,5.73-.69,7.1-3.81.2-.46.36-.96.45-1.46.33-1.9,1.48-1.92,2.78-1.12,1.56.96,3.28,1.34,5,1.85,2.12.63,2.42,1.27,1.68,3.39-2.23,6.4-6.98,9.53-13.53,10.14-3.21.3-6.38-.18-9.41-1.28-6.41-2.31-9.25-7.49-10.14-13.74-.59-4.14-.39-8.33.88-12.51,1.72-5.67,7.98-10.67,14.46-10.7,1.66,0,3.33-.07,4.99.04,5.89.39,10.87,4.32,12.6,9.7.37,1.15.07,1.73-.99,1.98-2.35.57-4.72,1.09-7.08,1.62-1.01.23-1.25-.59-1.68-1.22-2.21-3.19-4.13-4.09-6.93-3.32-3.2.89-4.88,3.07-5.12,6.79-.08,1.27-.01,2.56-.01,3.83h.07Z"/><path class="cls-7" d="M399.22,307.38c0,3.32.04,6.63-.01,9.95-.05,2.66-.1,2.67-2.86,2.75-1.4.04-2.81.04-4.21,0-2.8-.07-2.88-.09-2.9-2.71-.05-6.63-.05-13.26,0-19.89.02-2.66.1-2.68,2.86-2.75,1.4-.04,2.81-.04,4.21,0,2.83.08,2.87.09,2.9,3.1.04,3.19,0,6.38,0,9.56Z"/><path class="cls-7" d="M410.74,307.48c0,3.44-.04,6.89.02,10.33.03,1.59-.57,2.2-2.22,2.31-7.8.55-7.8.59-7.8-7.05,0-5.23.06-10.46-.03-15.68-.03-1.94.6-2.74,2.62-2.69,9.07.21,7.19-1.21,7.4,7.05.05,1.91,0,3.83,0,5.74h0Z"/><path class="cls-7" d="M422.27,307.72c0,3.32-.06,6.63.03,9.95.05,1.82-.68,2.52-2.47,2.43-1.78-.09-3.57-.08-5.35,0-1.68.07-2.22-.72-2.21-2.3.04-6.89.05-13.77,0-20.66-.02-1.82.68-2.53,2.48-2.43,1.78.09,3.57.08,5.35,0,1.68-.07,2.23.73,2.2,2.31-.05,3.57-.02,7.14-.02,10.71Z"/><path class="cls-7" d="M433.8,307.4c0,3.19.03,6.38,0,9.56-.04,3.02-.07,3.13-2.89,3.1-8.61-.1-6.94,1.24-7.09-6.93-.09-5.1-.04-10.2,0-15.3.02-3.02.07-3.13,2.89-3.1,8.59.1,6.91-1.23,7.1,6.93.04,1.91,0,3.83,0,5.74Z"/></g><rect id="CADRE_ROUGE" class="cls-10" x="293.24" y="206.46" width="1341.81" height="694.92"/></g></svg>