<?xml version="1.0" encoding="UTF-8"?><svg xmlns="http://www.w3.org/2000/svg" width="1920" height="1080" xmlns:xlink="http://www.w3.org/1999/xlink" viewBox="0 0 1920 1080"><defs><style>.cls-1{letter-spacing:0em;}.cls-2{letter-spacing:0em;}.cls-3{fill:#ffa7a7;}.cls-3,.cls-4,.cls-5,.cls-6,.cls-7,.cls-8,.cls-9,.cls-10{stroke-width:0px;}.cls-4{fill:#b3b3b3;}.cls-11{opacity:.62;stroke:#c15257;stroke-miterlimit:10;stroke-width:3px;}.cls-11,.cls-5{fill:none;}.cls-6{fill:#e5e5e5;}.cls-7{fill:#999;}.cls-8{fill:#a8a8a8;}.cls-12{fill:#8bbcd1;font-family:MyriadPro-Regular, 'Myriad Pro';font-size:56.91px;}.cls-13{clip-path:url(#clippath);}.cls-9{fill:#c14c52;opacity:.17;}.cls-10{fill:#6eebff;}</style><clipPath id="clippath"><rect class="cls-5" x="293.24" y="206.61" width="1341.81" height="694.76"/></clipPath></defs><g id="LES_CAM"><g id="Cam.C"><g id="Calque_20"><g class="cls-13"><path class="cls-6" d="M1028.5,1114.41c-8.76,33.68-29.3,38.47-56.66,29.94-16.55-5.16-33.89-7.93-50.2-13.69-37.62-13.27-41.58-20.14-38.05-63.45-209.57-68.2-420.1-136.71-630.29-205.1-21.08,42.25-27.24,45.07-72.82,33.84-12.18-3-24.36-6.27-36.14-10.53-43.57-15.73-47.55-23.28-36.75-70.63-192.23-62.53-384.71-125.15-576.98-187.69-27.72,43.06-29.42,43.7-81.49,29.87-8.39-2.23-16.79-4.52-25.01-7.32-46.54-15.85-50.26-21.96-41.96-70.31-16.92-5.65-33.78-13.59-51.48-16.66-29.57-5.13-37.38-23.78-45.7-50.18-14.54-46.12-4.35-79.94,24.67-118.39C-511.68,157.42-335.67-81.26-159.45-319.77c13.31-18.02,24.28-23.36,47.27-16.46C169.83-251.54,452.27-168.29,734.51-84.38c15.33,4.56,27.53,6.26,35.35-11.61,7.68-17.54,21.46-11.25,34.59-7.36,213.83,63.4,427.7,126.68,641.56,190.01,24.07,7.13,47.99,14.78,72.17,21.51,26.72,7.44,54.86,11.16,59.82,47.78.91,6.7,17.19,13.33,27.45,16.47,315.68,96.69,631.44,193.16,947.44,288.79,21.53,6.52,31.34,14.75,32.02,38.91,1.11,38.99,6.91,77.89,11.51,116.74,3.59,30.26-31.75,77.31-62.34,84.14-6.9,1.54-14.08,9.18-17.95,15.85-128.04,220.44-255.85,441.01-382.81,662.07-4.99,8.69-4.59,23.51-1.04,33.46,8.41,23.59,3.02,42.18-19.24,50.12-23.07,8.23-48.17,12.24-72.72,14.46-20.2,1.83-33.25-8.14-38.01-30.96-1.95-9.37-15.86-19.85-26.45-23.31-299.09-97.83-598.45-194.81-897.76-291.96-15.53-5.04-31.01-10.22-49.6-16.35ZM1543.01,167.87c-182.23,279.39-363.82,557.8-546.41,837.75,9.72,3.68,15.02,5.97,20.49,7.7,342.29,108.59,684.66,216.91,1026.73,326.19,20.93,6.69,30.14,2.56,40.72-16.09,146.72-258.66,294.26-516.86,441.56-775.19,12.72-22.32,25.19-44.78,39.05-69.44-50.02-15.04-96.56-29.02-145.61-43.77-1.05,31.35-6.99,56.9,16.53,81.68,26.4,27.81,18.49,51.8-18.85,60.94-27.5,6.73-57.1,4.61-85.66,7.47-8.18.82-19.85,2.77-23.43,8.36-74.42,116.11-147.91,232.82-220.66,347.94,12.35,15.88,23.45,30.16,39.87,51.28-17.22,2.24-30.73,4-45.57,5.93-47.13,67.6-51.78,69.77-99.72,41.46,20.2-31.34,40.22-62.74,60.79-93.77,2.23-3.36,8.86-7.38,11.5-6.31,19.48,7.89,23.29-8.66,29.87-19,66.86-105.12,135.14-209.4,199.03-316.31,27.14-45.42,44.6-96.34,44.32-151.49-.07-13.61,6.45-27.26,10.58-43.38-262.05-79.74-527.77-160.6-795.12-241.96ZM1550.25,131.98c-10.71-3.47-16.98-5.65-23.33-7.53-237.75-70.54-475.62-140.68-713.1-212.13-23.06-6.94-33.48-1-46.07,17.89-142.91,214.51-286.81,428.36-430.37,642.43-38.52,57.44-76.83,115.02-117.24,175.56,255.93,85.34,508.68,169.62,762.31,254.19,189.38-290.3,377.59-578.81,567.81-870.4ZM-709.95,445.8c8.57,3.15,12.88,4.89,17.29,6.33,292.68,95.54,585.43,190.85,877.9,287.03,18.75,6.17,25.66-1.71,34.47-14.87C391.1,468.28,562.79,212.46,734.37-43.42c4.61-6.88,8.68-14.12,14.35-23.39-37.75-11.2-72.53-21.51-109.12-32.36-2.57,29.13-7.23,53.36,15.26,77.31,25.94,27.62,18.15,52.45-18.15,61.05-28.35,6.72-58.77,4.45-88.18,7.13-9.18.84-22.34,1.81-26.48,7.75-80.06,114.76-159.06,230.27-238.3,345.67,5.34,6.79,10.28,12.18,14.14,18.25,3.51,5.52,5.83,11.79,8.68,17.73,5.35-4.79,11.91-8.76,15.84-14.52,20.14-29.5,39.69-59.41,59.25-89.3,8.82-13.48,19.04-28.66,35.9-16.03,4.85,3.63,1.57,24.89-3.99,34.62-45.73,79.92-107.24,149.67-145.49,235.03-16.15,36.04-48.95,64.86-75.64,95.7-4.59,5.3-16.49,4.27-25.02,6.16-1.04-8.06-5.5-17.76-2.54-23.9,15.31-31.76,29.91-64.38,49.71-93.32,25.13-36.72,55.01-70.18,82.84-105.04-1.28-3.06-2.57-6.11-3.85-9.17-8.39.78-18.48-1.09-24.76,2.97-8.55,5.52-14.22,15.52-21.05,23.67-26.42,31.5-48.1,31.96-79.19.46,22.04-26.59,43.96-53.52,66.58-79.86,3.95-4.6,13-10.8,16.02-9.22,16.83,8.81,22.38-3.36,29.37-13.52,76.62-111.38,153.28-222.74,229.64-334.3,5.3-7.74,9.47-16.7,12.18-25.7,11.76-39.06,31.3-76.49,23.94-119.73-1.14-6.67,6.01-14.75,10.01-23.7-6.35-2.09-12.5-4.29-18.75-6.15-214.72-63.64-429.58-126.79-643.96-191.52-22.77-6.88-34.06-2.52-47.58,15.91C-257.37-163.79-361.84-23.62-465.97,116.79c-80.51,108.56-161.02,217.13-243.98,329.01ZM2073.24,1439.77c-1.48-20.89-3.58-38.01-3.68-55.15-.11-19.91-10.53-27.53-28.53-33.21-338.55-106.79-676.89-214.25-1015.3-321.47-8.61-2.73-17.54-4.43-26.85-6.73q2.55,68.76,63.93,88.65c272.51,88.59,545,177.27,817.53,265.82,63.06,20.49,126.24,40.65,192.88,62.09ZM-711.84,460.17c4.12,18.22,8.43,29.4,8.87,40.74,1.27,32.33,20.37,44.09,49,53.25,236.9,75.79,473.31,153.1,709.87,229.92,51.8,16.82,103.62,33.57,159.43,51.64-3.17-20.94-6.4-36.84-7.78-52.89-1.63-18.88-11.17-27.85-29.21-33.67-244.03-78.82-487.82-158.38-731.68-237.72-51.03-16.6-102.11-33.03-158.51-51.27ZM991,1088.18c-2.34-69.41-2.83-70.24-61.62-89.81-210.72-70.17-421.47-140.27-632.21-210.37-25.25-8.4-50.56-16.6-79.54-26.11,2.35,16.88,5.18,29.02,5.51,41.23.81,29.33,15.66,41.59,43.82,50.31,131.86,40.84,262.8,84.66,394.08,127.39,109.13,35.53,218.28,71.02,329.97,107.36ZM2089.49,1424.17c4.84-7.5,8.55-12.73,11.75-18.26,151.37-261.31,301.77-523.19,455.01-783.4,23.01-39.07,22.14-74.74,13.07-119.59-6.98,10.76-11.79,17.43-15.84,24.53-148.76,260.61-296.83,521.62-446.87,781.49-20.99,36.36-33.11,70.62-17.12,115.22ZM541.41,38.93c33.39-4.32,64.23-7.13,94.46-13.08,7.25-1.43,18.99-17.04,17.44-19.77-7.02-12.38-19.12-32.53-27.45-31.65-35.17,3.72-74.01,7.36-84.45,64.5ZM2327.34,569.55c31.5,7.96,61.81,7.34,90.4-6.25,7.55-3.59,17.41-19.96,15.33-23.01-7.71-11.26-19.94-27.24-30.54-27.29-35.13-.16-65.5,12.52-75.19,56.55ZM124.97,820.44c-3.37,1.48-6.74,2.95-10.11,4.43,3.08,12.23,2.82,32.36,9.82,35.32,28.8,12.19,59.6,20.1,90.24,27.04,4.63,1.05,14.72-10.45,17.56-17.93,1.44-3.81-6.41-14.92-12.15-17.04-31.42-11.58-63.5-21.4-95.35-31.82ZM-488.67,621.02c-37.78-12.29-74.12-24.11-111.22-36.18-13.73,21.92-12.44,37.95,12.64,46.25,20.97,6.94,42.43,12.42,63.61,18.74,22.24,6.64,32.89-2.44,34.97-28.81ZM900.72,1072.46c-8.7,31.04-4.74,36.05,35.46,49.62,56.74,19.14,66.03,18.02,77.62-12.15-37.03-12.27-73.94-24.5-113.08-37.47ZM560.24-39.63c2.09.92,4.19,1.84,6.28,2.76,4.56-7.02,8.25-14.86,13.93-20.8,4.69-4.89,11.74-7.52,17.74-11.15-1.3,6.27-1.81,12.85-4.12,18.73-2.14,5.42-6.21,10.07-10.57,16.84,43.89-3.34,47.85-9.78,36.72-53.09h-59.98v46.71ZM2403.25,450.67h-60.46v49.96c2.42,1.43,4.85,2.85,7.27,4.28,1.39-3.68,1.9-8.11,4.32-10.89,7.6-8.71,15.91-16.8,23.95-25.13-2.54,11.37-5.08,22.74-7.52,33.64,35.43.89,38.24-3.12,32.44-51.87ZM411.88,329.84c-3.04-1.83-6.09-3.67-9.13-5.5-45.45,69.4-90.91,138.79-136.36,208.19,2.48,1.6,4.95,3.21,7.43,4.81,46.02-69.16,92.04-138.33,138.06-207.49ZM2086.55,1457.65c-24.08-7.29-45.62-13.82-67.16-20.34-1.87,2.78-3.74,5.55-5.61,8.33,7.29,6.11,13.88,16.21,21.99,17.64,30.46,5.37,59.95.36,82.82-22.07,4.43-4.35.64-17.09.64-25.96-2.22-.17-4.44-.33-6.65-.5-8.33,13.73-16.65,27.45-26.02,42.9ZM2578.52,608.6c-16.02,28.1-29.44,51.64-46.38,81.34,31.13-13.06,51.43-50.05,46.38-81.34ZM2399.66,436.21c-.18-2.62-.36-5.25-.54-7.87h-52.41c.02,2.62.04,5.25.06,7.87h52.88Z"/><path class="cls-6" d="M1667.51,1038.3c-266.7,1.76-329.24-263.31-247.88-411.93,88.44-161.56,299.59-251.21,467.84-193.08,80.49,27.81,128.33,83.98,156.32,165.16,60.17,174.56-58.87,332.37-202.84,399.43-54.97,25.61-112.68,39.61-173.43,40.42ZM1637.93,984.24c170.55,1.03,327.11-102.45,379.95-239.93,51.95-135.18-13.6-265.56-153.08-304.44-176.02-49.07-392.48,63.98-452.16,236.15-33.98,98.03-9.03,192.07,68.52,253.23,50.67,39.96,110.24,53.92,156.77,54.99ZM2049.38,706.24c-40.09,128.91-125.44,214.48-248.21,261.84-124.76,48.13-245.19,43.87-353.54-46.08,21.85,36.11,54.12,60.62,92.04,77.71,186.57,84.11,452.51-45.45,501.48-244.17,3.97-16.13,5.55-32.85,8.24-49.3Z"/><path class="cls-6" d="M1596.59,220.79c31.03-.1,55.77,23.84,55.97,54.15.19,29.76-24.9,54.72-55.28,54.99-30.38.27-55.2-24.08-55.41-54.37-.21-30.83,23.61-54.68,54.72-54.78ZM1639.62,275.05c-.13-21.54-22.01-42.38-43.67-41.6-21.47.78-40.92,19.81-41.53,40.65-.66,22.3,19.12,42.4,42.07,42.75,22.69.35,43.27-19.6,43.13-41.81Z"/><path class="cls-6" d="M1156.38,891.36c31.52-.25,56.36,22.83,57.08,53.02.7,29.49-24.48,54.49-55.18,54.8-32.11.32-55.74-21.96-56.17-52.97-.43-31.16,22.77-54.61,54.27-54.86ZM1115.24,945.49c.03,23.27,19.05,41.5,42.89,41.09,21.22-.36,41.52-19.52,42.25-39.88.77-21.63-19.64-41.92-42.46-42.21-24.17-.31-42.71,17.5-42.68,41Z"/><path class="cls-6" d="M1211.64,830.75c9.18,12.94,19.2,20.89,18.47,27.68-.82,7.56-11.43,14.05-17.78,21.01-7.38-7-18.53-12.98-20.79-21.36-1.47-5.42,10.06-14.36,20.1-27.32Z"/><path class="cls-6" d="M1270.94,784.41c-10.22-12.27-22.08-20.62-20.99-26.63,1.51-8.36,12.72-14.97,19.78-22.32,6.67,6.7,17.89,12.9,18.7,20.25.8,7.22-8.97,15.62-17.49,28.7Z"/><path class="cls-6" d="M1267.96,808.77c-14.19,8.41-23.82,18.43-29.73,16.58-8.08-2.53-13.32-14.1-19.78-21.79,7.3-5.5,14.73-15.48,21.87-15.28,7.44.21,14.6,10.23,27.63,20.49Z"/><path class="cls-6" d="M958.43,839.76c-22.61-5.24-22.04-17.4-13.86-30.96,18.41-30.56,37.42-60.76,56.4-90.97,16.41-26.12,34.49-51.3,49.27-78.29,13.5-24.65,18.12-56.07,36.09-76.02,83.71-92.96,135.97-206.53,207.61-307.17,6.09-8.55,20.54-11.14,31.1-16.5-1.25,11.28,1.07,24.75-4.3,33.51-53.39,87.14-108.51,173.22-161.97,260.32-11.28,18.37-15.16,41.39-26.94,59.32-51.07,77.73-103.68,154.45-156.16,231.25-4.51,6.61-12.18,11.06-17.24,15.51ZM952.8,819.97c2.22,1.55,4.44,3.1,6.66,4.65,39.44-62.77,78.88-125.54,118.32-188.3-2.1-1.33-4.2-2.67-6.3-4-39.56,62.55-79.12,125.1-118.68,187.66ZM1248.92,363.9c-1.84-1.44-3.68-2.87-5.53-4.31-37.4,59.42-74.79,118.84-112.19,178.26,2.01,1.26,4.02,2.51,6.03,3.77,37.23-59.24,74.46-118.48,111.68-177.72Z"/><path class="cls-6" d="M688.13,192.47c24.94,8.87,43.23,15.38,61.52,21.89-.9,3-1.8,6-2.7,9-20.16-5.24-40.32-10.48-60.94-15.85-64.59,54.94-103.18,130.71-150.07,200.12-46.42,68.72-91.1,138.61-136.67,207.9-4.19,6.38-8.33,13.64-14.38,17.67-4.64,3.09-13.79,4.24-18.1,1.61-4.33-2.64-8.22-11.89-6.86-16.71,2.78-9.86,8.49-19.16,14.23-27.89,75.21-114.44,151.03-228.49,225.62-343.33,12.23-18.83,16.51-42.97,29.34-61.23,31.24-44.47,64.83-87.34,98.86-129.74,5.03-6.27,17.59-6.5,26.67-9.53-.17,9.41,2.94,20.67-1.12,27.88-13.22,23.45-30.04,44.87-43.57,68.17-8.76,15.09-14.18,32.11-21.86,50.04ZM624.91,247.42c-2.14-1.16-4.29-2.33-6.43-3.49-82.2,124.85-164.4,249.71-246.6,374.56,2.24,1.45,4.47,2.9,6.71,4.35,82.11-125.14,164.21-250.28,246.32-375.42ZM681.6,148.19c1.82,1.39,3.64,2.79,5.45,4.18,19.37-29.5,38.75-58.99,58.12-88.49-1.77-1.16-3.54-2.32-5.3-3.48-19.43,29.26-38.85,58.52-58.28,87.79Z"/><path class="cls-6" d="M1035.48,527.79c-4.31,7.7-7.78,14.51-11.79,20.99-49.72,80.33-99.52,160.62-149.3,240.92-2.03,3.28-3.42,7.94-6.39,9.46-8.44,4.33-17.54,7.36-26.38,10.9-1.16-9.45-6.13-20.67-2.73-28.02,8.43-18.23,20.71-34.67,31.4-51.86,40.2-64.68,80.3-129.43,120.68-194,5.05-8.08,10.52-16.56,17.8-22.3,3.82-3.01,12.81-2.27,17.94.09,4.06,1.86,5.78,8.79,8.76,13.83ZM1020.41,528.96c-2.24-1.41-4.49-2.83-6.73-4.24-55.65,89.66-111.3,179.33-166.95,268.99,2.25,1.39,4.5,2.77,6.75,4.16,55.64-89.64,111.29-179.27,166.93-268.91Z"/><path class="cls-6" d="M596.41,725.87c-19.22-4.08-18.79-15.72-10.25-29.69,22.12-36.16,44.52-72.16,66.85-108.19,29.94-48.31,59.14-97.12,90.62-144.41,5.65-8.48,20.79-10.64,31.55-15.72-.86,11.19,2.04,24.66-3.15,33.23-50.36,83.24-102.2,165.58-153.2,248.44-5.02,8.16-7.29,18.02-10.84,27.09-3.86-3.59-7.73-7.17-11.59-10.76ZM594.81,706.92c2.18,1.69,4.37,3.38,6.55,5.07,55.36-89.33,110.72-178.66,166.08-267.99-2.18-1.34-4.35-2.68-6.53-4.01-55.37,88.98-110.73,177.96-166.1,266.94Z"/><path class="cls-6" d="M866.43,470.39c-4.04,7.16-7.14,13.13-10.67,18.84-49.66,80.38-99.37,160.74-149.1,241.08-3.04,4.92-5.29,11.6-9.78,14.07-7.6,4.18-16.7,5.65-25.16,8.25-1.38-8.57-6.66-19.16-3.45-25.34,11.95-23.02,26.66-44.62,40.4-66.71,38.19-61.4,76.34-122.83,114.74-184.1,4.54-7.24,9.42-15.13,16.16-19.81,4.14-2.88,12.92-1.95,18.11.48,4.13,1.93,5.97,8.74,8.75,13.26ZM850.65,472.28c-2.22-1.37-4.44-2.74-6.66-4.11-55.49,89.26-110.97,178.52-166.46,267.78,2.28,1.41,4.56,2.81,6.84,4.22,55.43-89.3,110.85-178.59,166.28-267.89Z"/><path class="cls-6" d="M512.61,703.12c-6.25-12.22-13.35-19.71-12.75-26.52.78-8.89,6.99-17.66,12.02-25.77,48.22-77.79,96.68-155.43,145.08-233.1,1.02-1.64,1.8-3.89,3.31-4.68,10.35-5.41,20.87-10.51,31.34-15.71-.55,11.04,2.57,24.14-2.28,32.75-20.82,36.89-43.95,72.49-66.33,108.51-28.46,45.82-56.77,91.74-85.72,137.25-5.3,8.32-13.33,14.91-24.66,27.28ZM685.03,413.39c-2.18-1.56-4.37-3.12-6.55-4.68-55.74,89.72-111.48,179.44-167.22,269.17,2.24,1.4,4.49,2.79,6.73,4.19,55.68-89.56,111.36-179.12,167.04-268.68Z"/><path class="cls-6" d="M753.89,781.13c-.71-10.49-5.45-23.02-1.37-31.09,12.12-23.95,27.74-46.13,41.95-69.03,37.05-59.71,74.08-119.44,111.14-179.15,2.03-3.27,3.53-8.03,6.5-9.34,9.31-4.11,19.21-6.89,28.88-10.19.07,9.49,3.8,21.18-.36,28.14-35.58,59.45-72.59,118.05-109.16,176.9-15.75,25.34-31.75,50.53-47.03,76.16-4.98,8.35-8.02,17.85-11.95,26.82-6.2-3.07-12.4-6.14-18.59-9.21ZM933.63,497.72c-2.16-1.61-4.31-3.22-6.47-4.83-55.62,89.53-111.24,179.06-166.86,268.58,2.25,1.39,4.5,2.79,6.75,4.18,55.53-89.31,111.05-178.62,166.58-267.93Z"/><path class="cls-6" d="M416.22,687.32c-17.03,26.49-30.88,49.47-46.49,71.18-3.29,4.58-13.91,7.74-19.6,6.12-27.54-7.86-54.54-17.57-86.12-28.08,17.51-26.04,32.33-49.32,48.73-71.43,3.23-4.35,13.42-7.17,18.91-5.58,26.78,7.75,53.06,17.23,84.56,27.79ZM357.61,753.71c13.18-20.75,24.75-38.99,36.61-57.67-84.18-32.22-61.72-37.37-106.43,32.88,3.32,1.85,6.41,4.23,9.89,5.39,19.05,6.35,38.2,12.4,59.92,19.39Z"/><path class="cls-6" d="M399.91,783.33q21.28-39.36,59.53-25c14.13,5.35,28.05,11.26,45.37,18.24-7.3,13.22-13.4,24.27-20.39,36.93-29.29-10.46-56.62-20.21-84.51-30.17ZM420.22,773.43c37.19,20.66,49.47,22.92,62.69,12.23-31.63-20.9-45.83-24.2-62.69-12.23Z"/><path class="cls-6" d="M504.14,824.67c14.04-40.76,16.15-41.82,50.6-28.34,14.29,5.59,28.62,11.1,42.85,16.82,1.65.66,2.84,2.47,7.05,6.28-5.81,10.27-12.06,21.3-19.43,34.3-28.13-10.08-54.64-19.59-81.08-29.06ZM521.42,813.93c39.65,21.11,49.55,22.8,62.54,11.45-35.05-21.54-45.9-23.91-62.54-11.45Z"/><path class="cls-6" d="M1057.94,510.15c-18.8-8.86-33.99-16.01-51.84-24.42,6.82-12.43,12.16-22.16,18.64-33.98,16.86,8.01,32.18,15.28,50.12,23.8-5.55,11.35-10.34,21.14-16.92,34.61Z"/><path class="cls-6" d="M925.66,452.71c4.48-9.61,9.12-19.59,15.16-32.56,17.78,8.26,33.53,15.57,48.93,22.73-12.62,40.27-17.58,40.95-64.1,9.83Z"/><path class="cls-6" d="M839.2,425.07c5.68-11.64,10.51-21.54,16.96-34.75,17.24,7.24,33.3,13.98,52.49,22.04-6.13,11.98-11.1,21.69-17.77,34.71-16.98-7.23-33-14.05-51.68-22Z"/><path class="cls-6" d="M733.07,395.44c-21.68-9.16-36.26-15.32-55.61-23.5,9.81-12.9,18.07-30.5,23.56-29.68,15,2.25,30.64,10.25,42.05,20.43,3.45,3.08-6.07,20.71-10,32.75Z"/><path class="cls-6" d="M812.75,418.2c-17.93-7.02-32.85-12.87-50.78-19.89,5.37-12.67,9.9-23.34,15.4-36.3,18.22,7.68,33.61,14.16,52.04,21.93-6.27,12.9-11.33,23.31-16.65,34.26Z"/><path class="cls-6" d="M917.73,324.46c10.9,16.65,21.7,26.01,21.43,35.03-.21,7.15-14.04,19.33-21.76,19.29-7.7-.05-21.33-12.4-21.48-19.58-.19-8.99,10.72-18.21,21.81-34.74Z"/><path class="cls-6" d="M952.52,196.81c-17.89,10.35-27.73,20.56-36.59,19.78-7.5-.66-19.57-14.37-19.17-21.73.42-7.7,13.2-20.41,20.78-20.56,8.87-.17,17.97,10.85,34.98,22.51Z"/><path class="cls-6" d="M801.6,266.37c-11.34-17.08-22.22-26.34-21.84-35.11.32-7.26,13.9-19.32,21.65-19.36,7.72-.04,21.35,11.95,21.73,19.22.46,8.75-10.34,18.08-21.54,35.25Z"/><path class="cls-6" d="M1242.84,220.4c-16.34,9.43-25.95,19.48-33.42,18.08-8.33-1.56-14.72-13.52-21.95-20.95,8.14-7.29,15.62-19.1,24.63-20.42,6.89-1,15.71,11.27,30.74,23.29Z"/><path class="cls-6" d="M1075.44,162.27c-15.75,9.57-25.21,19.91-32.99,18.77-8-1.17-14.37-13.53-21.45-21,8.11-7.42,15.46-19.23,24.58-20.8,6.58-1.13,15.5,11.35,29.86,23.03Z"/><path class="cls-6" d="M869.84,326.17c-17.53,10.18-27.31,20.35-36.33,19.71-7.35-.52-19.21-14.08-19.06-21.66.15-7.3,13.17-20.09,20.46-20.04,9.13.06,18.2,10.76,34.93,22Z"/><path class="cls-6" d="M1117.9,249.89c-15.08,11.07-24.21,22.79-31.21,21.64-9.04-1.49-16.38-13.28-24.45-20.63,7.5-7.02,14.42-18.67,22.67-19.71,7.85-.99,17.1,9.1,32.99,18.7Z"/><path class="cls-6" d="M880.18,72.17c11.22,14.67,23.65,24.15,22.28,30.78-1.87,9.08-14.21,16-22.07,23.84-7.15-7.51-19.08-14.45-20.06-22.7-.91-7.69,9.82-16.76,19.85-31.92Z"/><path class="cls-6" d="M878.6,165.55c-16.18,9.33-26.79,20.08-33.06,17.97-8.93-3.01-14.67-15.47-21.77-23.9,8.09-6.32,16.17-17.54,24.29-17.57,7.85-.03,15.75,11.45,30.54,23.51Z"/><path class="cls-6" d="M1155.54,184.21c-14.96,11.42-24.24,23.62-30.85,22.31-9.03-1.79-16.02-13.86-23.88-21.52,7.42-7.25,14.16-19.19,22.44-20.37,7.53-1.07,16.73,9.54,32.28,19.58Z"/><path class="cls-6" d="M1120.79,320.44c9.81,15.51,20.53,24.97,19.45,32.8-1.15,8.34-13.48,15.12-20.94,22.59-7.48-8.28-19.41-15.81-20.98-25.09-1.16-6.83,11.23-15.95,22.47-30.3Z"/><path class="cls-6" d="M987.5,290.47c-15.2,10.35-25.38,22.13-31.53,20.31-8.94-2.64-14.97-15.1-22.24-23.38,7.75-6.76,15.2-18.37,23.32-18.86,7.62-.46,15.95,10.84,30.45,21.92Z"/><path class="cls-6" d="M1161.53,248.13c11.71,15.26,23.65,24.21,22.52,30.96-1.5,8.86-13.3,15.97-20.67,23.84-7.34-7.12-19.33-13.48-20.67-21.59-1.24-7.49,8.95-16.86,18.83-33.21Z"/><path class="cls-6" d="M875,293.19c-10.97-14.92-21.98-23.33-21.62-31.23.37-8.24,11.69-15.99,18.22-23.95,8.05,7.41,20.49,13.72,22.72,22.59,1.71,6.83-9.43,16.88-19.32,32.59Z"/><path class="cls-6" d="M1076.79,387.72c11.31,15.16,23.23,24.47,21.82,30.85-2,9.08-13.78,16-21.38,23.85-7.15-7.17-19.17-13.78-20.08-21.66-.89-7.81,9.42-16.9,19.63-33.04Z"/><path class="cls-6" d="M964.83,167.02c-11.79-14.44-24.18-23.27-23.08-29.82,1.5-8.91,12.3-20.37,21.07-22.45,5.58-1.32,19.52,11.56,20.88,19.58,1.27,7.46-9.15,16.9-18.87,32.69Z"/><path class="cls-6" d="M757.73,331.3c-10.43-15.72-21.75-25.62-20.02-31.9,2.48-8.94,14.55-15.22,22.52-22.63,6.66,7.6,18.06,14.87,18.61,22.89.53,7.71-10.17,16.19-21.11,31.65Z"/><path class="cls-6" d="M1034.88,351.7c-9.64-16.02-20.56-26.29-18.7-33,2.47-8.87,14.96-14.95,23.14-22.23,6.39,8.06,17.56,15.98,17.8,24.22.23,7.89-10.9,16.1-22.24,31.01Z"/><path class="cls-6" d="M996.69,418.31c-10.97-15.28-22.66-24.76-21.15-31.09,2.15-9.02,13.99-15.74,21.68-23.44,6.95,7.42,18.59,14.31,19.5,22.4.85,7.59-9.65,16.46-20.03,32.13Z"/><path class="cls-6" d="M1040.75,226.27c-15.82,11.35-25.16,22.94-31.66,21.52-8.93-1.95-15.7-13.75-23.4-21.34,7.36-6.95,14.12-18.46,22.24-19.52,7.56-.99,16.57,9.16,32.82,19.34Z"/><path class="cls-6" d="M1393.72,149.33c9.45,16.03,18.55,24.58,17.3,31.15-1.47,7.71-11.9,18.91-18.55,18.98-6.79.07-18.96-11.32-19.2-18.03-.29-7.93,9.69-16.23,20.46-32.09Z"/><path class="cls-6" d="M1351.56,161.56c-14.41,9.02-23.39,18.93-29.43,17.38-8.3-2.14-14.36-12.95-21.38-20.05,7.21-6.02,14.14-16.3,21.73-16.82,7.09-.48,14.89,9.4,29.08,19.48Z"/><path class="cls-6" d="M735.1,133.16c19.34,5.94,38.67,11.87,58.01,17.81-1.17,3.81-2.34,7.62-3.51,11.43-19.29-6.07-38.58-12.13-57.86-18.2,1.12-3.68,2.24-7.36,3.36-11.04Z"/><path class="cls-6" d="M986.65,828.28c19.41,6.07,38.82,12.15,58.23,18.22-.92,3.34-1.84,6.69-2.76,10.03-20.05-5.68-40.11-11.35-60.16-17.03,1.57-3.74,3.13-7.48,4.7-11.23Z"/><path class="cls-6" d="M1152.14,688.85c-19.47-6.06-38.94-12.12-58.41-18.18,1.18-3.82,2.36-7.64,3.54-11.46,19.43,5.96,38.87,11.91,58.3,17.87-1.14,3.92-2.28,7.85-3.42,11.77Z"/><path class="cls-6" d="M-57.47,488.25c-121.61,2.28-223.39-65.78-246.92-193.36-17.04-92.39,3.79-169.72,57.75-241.82C-154.9-69.48,21.75-129.32,156.07-83.43c74.02,25.29,115.98,77.48,142.3,151.59,60.7,170.94-70.82,333.8-209.8,388.52-46.01,18.12-95.94,26.28-144.07,39-.66-2.48-1.31-4.96-1.97-7.44ZM-67.58,432.48c151.4-.53,304.97-111.29,346.34-249.79,35.71-119.55-25.1-227.91-145.65-259.56C3.76-110.83-157.6-48.04-241.8,69.23c-40.04,55.76-65.78,116.8-55.92,186.66,15.24,107.99,106.83,177.02,230.14,176.59ZM-262.35,371.77c33.73,54.51,78.27,82.2,131.9,95.54,165.74,41.21,367.74-72.51,419.27-235.63,5.7-18.05,8.44-37.04,12.55-55.6-7.09,2.15-8.69,5.47-9.65,8.96-58.67,213.28-372.51,349.8-554.07,186.73Z"/><path class="cls-6" d="M27.76,625.67c-13.99,8.82-23.08,18.89-29.12,17.31-8.28-2.17-14.24-13.18-21.2-20.4,7.28-6.07,14.33-16.52,21.92-16.95,7.1-.39,14.79,9.85,28.4,20.04Z"/><path class="cls-6" d="M58.05,674.04c-8.53-13.96-17.74-22.36-17-29.77.7-7.01,11.83-12.98,18.38-19.41,6.89,7.32,17.83,13.91,19.3,22.19,1.07,6.02-10.38,14.26-20.68,26.98Z"/></g></g><g id="Cam_scene_-_copie_2"><g id="Epaule"><path class="cls-10" d="M335.51,64.43c15.16-7.98,30.32-15.96,45.48-23.94,2.98-1.57,6.25-1.02,8.34,1.41.39.46.72.98,1,1.51,2.45,4.63,4.9,9.27,7.33,13.91,1.96,3.74.76,7.44-2.93,9.47-4.08,2.24-7.7,5.05-10.3,8.98-1.17,1.78-1.82,3.75-1.99,5.89-.3,3.85-.67,7.69-.97,11.54-.05.59-.24.93-.77,1.21-6.97,3.64-13.92,7.31-20.87,10.98-.5.27-.87.25-1.36-.03-3.1-1.79-6.28-3.46-9.33-5.33-3.9-2.39-8-2.81-12.33-1.67-1.73.45-3.48.93-5.1,1.67-2.5,1.15-3.88,3.38-2.25,6.47,2.36,4.49,4.75,8.97,7.08,13.48.58,1.12,1.11,2.29,1.51,3.48,1.5,4.43-.04,8.17-4.18,10.36-3.03,1.59-6.08,3.13-9.07,4.79-2.96,1.65-5.95,1.61-9,.39-2.26-.9-4.15-2.38-5.89-4.05-2.9-2.79-5.24-6.03-7.39-9.41-5.74-9.05-10.52-18.64-15.49-28.11-1.78-3.39-.48-7.23,2.93-9.03,15.18-8,30.36-15.99,45.55-23.98ZM317.95,97.04c3.71-1.95,7.42-3.9,11.12-5.86,1.66-.88,2.11-2.29,1.25-3.94-1.18-2.27-2.38-4.54-3.58-6.81-.91-1.71-2.31-2.14-4-1.25-7.39,3.89-14.78,7.78-22.18,11.67-1.74.91-2.16,2.31-1.24,4.07,1.17,2.22,2.33,4.44,3.51,6.66.92,1.75,2.32,2.18,4.07,1.26,3.69-1.94,7.37-3.88,11.05-5.82ZM378.55,89.17c.11-1.81.29-3.62.32-5.43.02-.95-.2-1.91-.35-2.86-1.36-8.56-4.25-16.63-7.86-24.46-.52-1.14-1.16-2.22-1.77-3.38-.4,1.05-.79,2.13-1.23,3.18-.21.5-.16.91.07,1.4,2.55,5.5,4.79,11.14,6.57,16.94,1.49,4.84,2.83,9.72,4.25,14.62ZM332.82,71.87c.16.31.22.43.29.54,3.43,5.99,7.14,11.8,11.64,17.05,3.33,3.89,6.66,7.81,11.38,10.16.42.21.81.47,1.3.76-.04-.17-.04-.21-.06-.22-7.52-8.36-14.39-17.2-20.12-26.91-.11-.19-.34-.38-.55-.43-1.22-.32-2.45-.61-3.89-.95ZM326.53,122.07c-2.42,1.27-3.35,4.26-2.08,6.67,1.25,2.37,4.22,3.3,6.61,2.06,2.44-1.26,3.39-4.22,2.13-6.64-1.26-2.42-4.24-3.36-6.66-2.08Z"/><path class="cls-10" d="M368.26,165.55c-.62-1.19-1.26-2.29-1.78-3.44-.18-.39-.16-.92-.07-1.36.36-1.88-.17-3.49-1.06-5.17-5.45-10.19-10.8-20.44-16.18-30.66l-.46-.87c18.14-9.55,36.23-19.07,54.43-28.65l.48.92c5.64,10.72,11.28,21.43,16.91,32.15.32.61.69,1.12,1.35,1.35,1.99.7,3.31,2.07,4.02,4.05.13.35.35.67.55,1.05-19.41,10.22-38.76,20.4-58.19,30.63ZM404.99,107.22l-1.95,1.03c2.59,4.93,5.17,9.82,7.75,14.73.67-.35,1.29-.68,1.95-1.03-2.58-4.91-5.15-9.78-7.75-14.73ZM404.45,126.31c-2.61-4.96-5.18-9.84-7.76-14.74-.67.35-1.27.67-1.92,1.01,2.59,4.92,5.16,9.81,7.76,14.74l1.92-1.01ZM400.34,128.49c-2.61-4.97-5.19-9.85-7.75-14.73-.68.36-1.3.69-1.92,1.01,2.6,4.94,5.17,9.83,7.75,14.73.67-.35,1.27-.67,1.92-1.01ZM386.53,116.92c2.61,4.95,5.18,9.84,7.76,14.74.68-.36,1.3-.68,1.94-1.02-2.6-4.93-5.17-9.82-7.76-14.74-.66.35-1.26.66-1.94,1.02ZM388,134.98c-2.61-4.96-5.18-9.83-7.74-14.71-.69.36-1.33.7-1.96,1.03,2.6,4.93,5.16,9.81,7.74,14.71l1.96-1.03ZM383.88,137.16c-2.61-4.96-5.19-9.85-7.76-14.74-.68.36-1.3.69-1.93,1.02,2.6,4.94,5.17,9.82,7.76,14.74.66-.35,1.26-.67,1.93-1.02ZM382.42,119.1c2.61,4.95,5.18,9.84,7.75,14.73l1.95-1.03c-2.59-4.92-5.16-9.81-7.75-14.73l-1.95,1.03ZM357.66,132.11c2.61,4.96,5.18,9.84,7.75,14.73l1.94-1.02-7.75-14.73-1.94,1.02ZM371.49,143.68c-2.61-4.97-5.19-9.85-7.75-14.73-.68.36-1.3.68-1.92,1.01,2.6,4.94,5.17,9.83,7.75,14.73l1.92-1.01ZM375.61,141.51c-2.61-4.96-5.18-9.85-7.75-14.72l-1.92,1.01c2.6,4.94,5.17,9.82,7.75,14.72.66-.35,1.27-.67,1.92-1.01ZM370.06,125.59l7.76,14.74,1.93-1.02c-2.6-4.94-5.17-9.82-7.76-14.74-.66.35-1.26.66-1.93,1.02ZM406.65,125.15l1.95-1.02c-2.59-4.93-5.16-9.81-7.75-14.72l-1.95,1.02c2.59,4.91,5.15,9.78,7.75,14.72Z"/><path class="cls-10" d="M389.21,74.55c1.94,1.99,3.81,3.89,5.64,5.83.54.57,1.01,1.24,1.38,1.93,1.55,2.86,3.05,5.75,4.56,8.63.14.26.28.52.46.88-.37.19-.65.34-.94.49-17.48,9.2-34.95,18.4-52.43,27.6-1.21.64-1.01.65-1.61-.5-1.48-2.8-2.98-5.6-4.42-8.43-.37-.73-.66-1.52-.84-2.31-.53-2.31-.99-4.63-1.48-6.95-.05-.26-.09-.53-.14-.84,2.55-.35,4.95-.09,7.17,1.16,3.92,2.2,7.83,4.42,11.72,6.66.56.32.98.37,1.58.05,7.82-4.15,15.66-8.27,23.51-12.37.61-.32.87-.68.93-1.37.34-4.31.76-8.62,1.08-12.94.22-3.02,1.72-5.34,3.83-7.51Z"/><path class="cls-10" d="M371.53,174.86c-1.24-2.35-2.43-4.62-3.65-6.93,20.2-10.63,40.37-21.25,60.61-31.9,1.21,2.3,2.42,4.59,3.65,6.93-20.2,10.63-40.38,21.25-60.61,31.9Z"/><path class="cls-10" d="M331.22,64.89c-.91-1.73-1.79-3.4-2.73-5.18,1.62-.69,2.96-1.81,4.74-2.1,9.49-1.56,17.5-5.9,24.17-12.83,1.06-1.1,2.68-1.67,4.08-2.51l2.76,5.24c-10.98,5.78-21.97,11.56-33.02,17.38Z"/></g><polygon id="B" class="cls-9" points="441.83 154.28 818.31 513.86 467.87 549.81 377.29 187.87 441.83 154.28"/><g id="Face"><path class="cls-10" d="M159.33,1008.1c-9.99-13.92-19.97-27.84-29.95-41.76-1.96-2.74-1.87-6.05.25-8.45.4-.45.87-.85,1.36-1.2,4.25-3.07,8.51-6.12,12.77-9.17,3.44-2.45,7.27-1.77,9.78,1.6,2.78,3.73,6.05,6.93,10.31,8.97,1.92.92,3.96,1.29,6.11,1.16,3.85-.23,7.71-.39,11.56-.62.59-.03.95.11,1.3.6,4.57,6.4,9.15,12.79,13.75,19.16.33.46.36.83.15,1.35-1.35,3.32-2.57,6.7-4,9.98-1.83,4.19-1.68,8.31.04,12.44.69,1.65,1.4,3.32,2.35,4.82,1.48,2.32,3.88,3.38,6.72,1.34,4.13-2.96,8.24-5.93,12.38-8.87,1.03-.73,2.11-1.41,3.24-1.98,4.18-2.09,8.1-1.08,10.83,2.72,1.99,2.78,3.94,5.6,6,8.33,2.04,2.71,2.41,5.67,1.62,8.86-.58,2.37-1.78,4.44-3.2,6.39-2.37,3.26-5.25,6.02-8.3,8.61-8.18,6.93-17.02,12.97-25.72,19.2-3.11,2.23-7.09,1.47-9.34-1.66-10.01-13.94-20-27.88-30-41.82ZM194.04,1021c-2.44-3.41-4.88-6.81-7.33-10.21-1.1-1.53-2.55-1.78-4.08-.7-2.09,1.48-4.18,2.98-6.25,4.48-1.57,1.14-1.8,2.58-.69,4.14,4.87,6.79,9.74,13.58,14.61,20.36,1.14,1.59,2.59,1.82,4.2.67,2.04-1.46,4.08-2.92,6.12-4.39,1.6-1.15,1.84-2.6.69-4.2-2.42-3.38-4.85-6.77-7.28-10.15ZM177.93,962.06c-1.81.14-3.63.21-5.42.43-.94.12-1.87.46-2.79.74-8.29,2.52-15.89,6.49-23.15,11.14-1.05.67-2.04,1.45-3.1,2.22,1.1.26,2.22.49,3.32.79.53.14.92.03,1.37-.26,5.1-3.28,10.37-6.27,15.87-8.83,4.59-2.14,9.24-4.14,13.89-6.22ZM167.07,1009.73c.29-.21.39-.28.5-.36,5.46-4.22,10.71-8.69,15.29-13.87,3.39-3.84,6.82-7.67,8.5-12.67.15-.44.36-.87.58-1.39-.17.07-.2.07-.21.09-7.25,8.6-15.06,16.62-23.89,23.62-.17.14-.33.39-.35.6-.15,1.25-.26,2.51-.41,3.98ZM217.66,1009.07c1.59,2.22,4.68,2.74,6.89,1.15,2.18-1.57,2.69-4.63,1.13-6.83-1.59-2.24-4.64-2.78-6.87-1.2-2.23,1.58-2.74,4.66-1.15,6.88Z"/><path class="cls-10" d="M255,961.76c-1.09.78-2.09,1.56-3.16,2.23-.36.23-.89.28-1.34.26-1.91-.1-3.44.64-4.98,1.76-9.35,6.79-18.76,13.5-28.15,20.24l-.8.57c-11.95-16.65-23.86-33.27-35.85-49.98l.84-.6c9.84-7.06,19.68-14.12,29.53-21.16.56-.4,1.01-.83,1.15-1.53.42-2.07,1.6-3.56,3.46-4.54.33-.18.62-.44.97-.69,12.79,17.83,25.53,35.59,38.33,53.44ZM192.18,933.4l1.29,1.79c4.53-3.25,9.01-6.47,13.52-9.7l-1.29-1.79c-4.51,3.23-8.98,6.44-13.52,9.7ZM211.16,931.31c-4.55,3.27-9.04,6.48-13.53,9.71l1.27,1.77c4.52-3.24,9-6.46,13.53-9.71l-1.27-1.77ZM213.89,935.08c-4.56,3.27-9.05,6.49-13.53,9.7l1.27,1.76c4.54-3.25,9.02-6.47,13.53-9.7l-1.27-1.76ZM204.32,950.35c4.55-3.26,9.04-6.48,13.53-9.71l-1.28-1.78c-4.53,3.25-9.02,6.47-13.53,9.71l1.28,1.78ZM222,946.41c-4.56,3.27-9.03,6.48-13.51,9.69l1.29,1.8c4.53-3.25,9-6.46,13.51-9.69l-1.29-1.8ZM224.73,950.19c-4.56,3.27-9.05,6.49-13.53,9.71l1.27,1.77c4.53-3.25,9.02-6.47,13.53-9.71l-1.27-1.77ZM207.04,954.12c4.55-3.26,9.03-6.48,13.52-9.7l-1.29-1.79c-4.52,3.24-9,6.46-13.52,9.7l1.29,1.79ZM223.32,976.86c4.55-3.27,9.04-6.48,13.52-9.7l-1.28-1.78c-4.54,3.26-9.02,6.47-13.52,9.7l1.28,1.78ZM232.89,961.57c-4.56,3.27-9.05,6.49-13.53,9.7l1.27,1.76c4.54-3.25,9.02-6.47,13.53-9.7l-1.27-1.76ZM230.18,957.79c-4.56,3.27-9.04,6.49-13.52,9.7l1.26,1.76c4.54-3.25,9.02-6.47,13.52-9.7l-1.26-1.76ZM215.17,965.48c4.55-3.26,9.04-6.48,13.53-9.71l-1.27-1.77c-4.53,3.25-9.02,6.47-13.53,9.71l1.27,1.77ZM209.71,929.29l-1.28-1.79c-4.52,3.25-9.01,6.46-13.52,9.7l1.28,1.79c4.51-3.24,8.98-6.44,13.52-9.7Z"/><path class="cls-10" d="M161.99,953.51c1.71-2.19,3.33-4.31,5-6.39.49-.61,1.09-1.17,1.72-1.64,2.62-1.93,5.28-3.81,7.93-5.7.24-.17.48-.34.81-.58.24.34.43.6.62.86,11.51,16.05,23.02,32.1,34.53,48.15.8,1.11.78.91-.28,1.67-2.57,1.85-5.14,3.72-7.74,5.54-.67.47-1.41.86-2.17,1.15-2.21.84-4.45,1.62-6.68,2.42-.25.09-.51.16-.82.26-.69-2.48-.77-4.89.16-7.26,1.64-4.18,3.3-8.36,4.98-12.52.24-.6.23-1.02-.17-1.57-5.18-7.18-10.34-14.38-15.48-21.59-.4-.56-.79-.77-1.48-.73-4.32.26-8.65.43-12.97.7-3.02.19-5.52-.97-7.96-2.76Z"/><path class="cls-10" d="M263.77,957.26c-2.16,1.55-4.24,3.04-6.37,4.57-13.31-18.55-26.59-37.07-39.92-55.65l6.37-4.57c13.31,18.55,26.59,37.08,39.92,55.65Z"/><path class="cls-10" d="M160.38,1012.28c-1.58,1.14-3.12,2.24-4.75,3.41-.9-1.51-2.2-2.69-2.73-4.41-2.85-9.19-8.25-16.52-16.03-22.18-1.24-.9-2.02-2.42-3.04-3.7l4.81-3.45c7.23,10.08,14.47,20.17,21.75,30.32Z"/></g><polygon id="H" class="cls-9" points="1635.06 901.38 279.51 945.06 239.29 889.5 293.24 206.46 1635.06 901.38"/><g id="CAM_ABC_-_copie_2"><text class="cls-12" transform="translate(1716.28 399.43) scale(.84 1)"><tspan class="cls-2" x="0" y="0">C</tspan><tspan class="cls-1" x="32.61" y="0">am. C</tspan></text><text class="cls-12" transform="translate(145.33 155.44) scale(.84 1)"><tspan class="cls-2" x="0" y="0">C</tspan><tspan class="cls-1" x="32.61" y="0">am. B</tspan></text><text class="cls-12" transform="translate(293.24 1024.95) scale(.84 1)"><tspan class="cls-2" x="0" y="0">C</tspan><tspan class="cls-1" x="32.61" y="0">am. A</tspan></text><line class="cls-11" x1="1776.01" y1="430.84" x2="1638.38" y2="614.35"/></g></g><g id="_85_mm"><path class="cls-4" d="M1685.64,103.16c-.16,2.6-1.56,5.43-4.62,6.93-2.05.98-5.62,1.27-8.19-.29-3.02-1.82-4.13-4.84-4.13-7.25,0-1.92.65-4.81,3.48-6.6-1.66-1.5-2.08-4.1-1.69-5.72.55-2.28,1.82-4.1,4.36-5.11,1.76-.65,4.26-.65,6.31.75,2.18,1.5,3.15,3.41,3.15,5.85,0,1.24-.91,3.45-2.02,4.32,2.73,1.59,3.54,4.45,3.35,7.12ZM1677.18,106.22c2.08,0,3.74-1.69,3.74-3.77s-1.66-3.77-3.74-3.77-3.77,1.69-3.77,3.77,1.69,3.77,3.77,3.77ZM1677.31,93.8c1.2,0,2.21-1.01,2.21-2.21s-1.01-2.18-2.21-2.18-2.18.98-2.18,2.18.98,2.21,2.18,2.21Z"/><path class="cls-4" d="M1699.62,84.82h12.26v4.65h-8.36l-.68,3.77c1.69-.75,5.04-.91,7.38.75,3.12,2.28,4,5.33,3.97,7.87-.03,2.73-1.4,5.85-4.55,7.74-2.8,1.66-6.05,1.56-8.58.32-3.22-1.59-4.71-4.45-5.01-7.45h4.81c.33,1.98,2.05,3.48,4.16,3.48,2.34,0,4.26-1.95,4.26-4.29s-1.92-4.26-4.26-4.26c-1.43,0-2.7.65-3.48,1.79l-4.32-1.2,2.41-13.17Z"/><path class="cls-4" d="M1750.41,110.45v-8.81c0-2.44.26-5.01-1.89-6.21-.84-.46-2.28-.46-3.25.16-1.89,1.17-1.69,3.71-1.69,5.1v9.75h-4.78v-9.36c0-1.79.1-4.45-1.72-5.59-.98-.62-2.47-.62-3.45,0-1.95,1.24-1.72,3.51-1.72,5.27v9.69h-4.78v-19.64h4.55v1.5c2.02-1.85,4.45-2.37,6.47-1.72,1.3.39,2.31,1.14,3.48,2.44,2.54-3.02,6.47-3.09,8.75-2.21,4.91,1.89,4.85,6.37,4.85,9.59v10.05h-4.81Z"/><path class="cls-4" d="M1781.82,110.45v-8.81c0-2.44.26-5.01-1.89-6.21-.84-.46-2.28-.46-3.25.16-1.89,1.17-1.69,3.71-1.69,5.1v9.75h-4.78v-9.36c0-1.79.1-4.45-1.72-5.59-.98-.62-2.47-.62-3.45,0-1.95,1.24-1.72,3.51-1.72,5.27v9.69h-4.78v-19.64h4.55v1.5c2.02-1.85,4.45-2.37,6.47-1.72,1.3.39,2.31,1.14,3.48,2.44,2.54-3.02,6.47-3.09,8.75-2.21,4.91,1.89,4.85,6.37,4.85,9.59v10.05h-4.81Z"/><path class="cls-4" d="M1797.11,104.41c.07,2.36,1.09,4.34,2.93,5.68v2.91c-3.22-1.66-5.25-4.88-5.25-8.59,0-3.9,2.05-7.4,5.25-9.14v2.93c-1.85,1.46-3.03,3.71-2.93,6.21Z"/><path class="cls-4" d="M1804.88,97.63h6.13v2.33h-4.18l-.34,1.89c.85-.37,2.52-.46,3.69.37,1.56,1.14,2,2.67,1.98,3.94-.02,1.37-.7,2.93-2.28,3.87-1.4.83-3.03.78-4.29.16-1.61-.8-2.36-2.23-2.5-3.73h2.41c.16.99,1.03,1.74,2.08,1.74,1.17,0,2.13-.98,2.13-2.15s-.96-2.13-2.13-2.13c-.72,0-1.35.33-1.74.89l-2.16-.6,1.2-6.59Z"/><path class="cls-4" d="M1825.42,100.3c1.19,2.05,1.2,4.94,0,7.01-1.66,2.9-4.15,3.14-6.69,3.14h-3.11v-13.29h2.52c2.08,0,5.58.28,7.27,3.14ZM1819.95,108.09c1.5-.11,2.65-.55,3.48-2.2.63-1.24.5-3.43-.18-4.52-1.27-2.02-3.76-1.89-5.16-1.89v8.64c1.11-.02.78.05,1.85-.03Z"/><path class="cls-4" d="M1832.73,104.41c0,3.71-2.02,6.93-5.24,8.59v-2.91c1.82-1.33,2.93-3.3,2.93-5.68,0-2.5-1.09-4.75-2.93-6.21v-2.93c3.19,1.74,5.24,5.24,5.24,9.14Z"/></g></g></g><g id="Cadre_infos"><g id="Cadre"><path class="cls-7" d="M1548.99,132.07c1.16-.08,1.93-.13,2.91-.2v-63.34c-.78-.1-1.69-.21-3.21-.41.35-3.63.04-7.4,1.2-10.98,2.1-6.48,11.53-11.34,22.39-11.81,6.22-.27,12.51-.05,18.91-.05.15.59.27,1.1.41,1.68h239.42c.15-.56.28-1.07.36-1.39,7.29,0,14.5-.45,21.51.1,11.96.94,20.66,7.68,20.72,15.21.02,2.37,0,4.75,0,7.24-.95.13-1.84.25-2.83.39v63.22c.84.12,1.73.26,3.3.49-.51,3.82-.26,7.79-1.71,11.5-2.63,6.74-12.78,11.24-23.92,11.29-5.58.02-11.16,0-16.95,0-.07-1.24-.94-1.67-3.04-1.67-78.18.04-156.36.04-234.53.04-.68,0-1.36.04-2.19.06-.23.5-.45.99-.57,1.25-7.34,0-14.56.46-21.57-.1-11.76-.94-20.54-7.73-20.6-15.11-.02-2.43,0-4.86,0-7.42ZM1869.51,131.88v-63.45c-1.1-.06-1.95-.11-3.03-.17,0-1.23.01-2.38,0-3.52-.13-8.52-10.55-14.98-24.25-15.02-3.59-.01-7.19,0-10.72,0-.24-.77-.41-1.34-.58-1.86h-239.33c-.19.67-.35,1.24-.53,1.86-3.69,0-7.21,0-10.73,0-13.51.03-24.03,6.5-24.2,14.87-.02,1.2,0,2.41,0,3.67-1.12.08-1.96.13-2.9.2v63.36c.99.11,1.89.22,2.91.33,0,1.26-.02,2.41,0,3.57.17,8.38,10.67,14.84,24.19,14.87,3.6,0,7.2,0,10.81,0,.2.81.35,1.43.5,2.06h239.4c.14-.71.26-1.34.41-2.06,3.9,0,7.61.02,11.33,0,11.21-.08,20.89-4.92,23.11-11.74.71-2.18.6-4.46.88-6.79.81-.05,1.66-.1,2.75-.16Z"/></g><path class="cls-7" d="M1640.19,100c.02,19.15-15.36,34.51-34.55,34.51-19.05,0-34.43-15.36-34.46-34.39-.02-18.98,15.39-34.38,34.45-34.4,19.08-.02,34.54,15.32,34.56,34.29ZM1606.41,115.7c-2.81-1.14-5.78-2.01-8.42-3.47-7.06-3.89-13.99-8.04-20.98-12.07-.51-.29-1.06-.51-1.84-.88-.05,10.91,4.08,19.33,12.54,25.61.44.33,1.42.43,1.89.17,5.74-3.13,11.44-6.35,16.8-9.36ZM1589.84,125.78c.17.29.2.45.3.51,9.02,5.51,18.42,6.13,28.13,2.05.55-.23,1.04-1.3,1.06-2,.17-5.96.24-11.93.32-17.9,0-.44-.11-.88-.26-1.94-2.36,4.51-6.09,6.52-9.87,8.53-5.85,3.11-11.65,6.32-17.47,9.5-.74.4-1.47.83-2.21,1.25ZM1636.4,101.02c.12-.38.23-.57.24-.75.09-10.39-4.21-18.62-12.49-24.8-.49-.37-1.65-.3-2.25.02-3.25,1.71-6.43,3.56-9.64,5.35-2.36,1.32-4.72,2.65-6.99,3.93,2.41.82,4.85,1.29,6.92,2.42,7.51,4.14,14.89,8.51,22.32,12.78.6.35,1.21.67,1.9,1.05ZM1622.39,74.38c-9.52-5.68-18.91-6.51-28.65-2.42-.61.26-1.2,1.37-1.22,2.11-.16,4.75-.17,9.5-.21,14.26-.02,1.62,0,3.24,0,4.87,2.53-3.76,6.18-5.84,9.95-7.83,5.62-2.97,11.16-6.06,16.74-9.1.99-.54,1.98-1.09,3.4-1.87ZM1619.23,92.03c-.17.1-.35.2-.52.3,2.44,3.25,2.08,6.94,2.01,10.59-.13,7.41-.23,14.83-.34,22.24,0,.54.08,1.08.12,1.61.31,0,.47.05.58,0,9.25-5.06,14.31-12.89,15.44-23.29.05-.49-.36-1.28-.79-1.54-5.47-3.34-10.99-6.61-16.5-9.9ZM1591.48,73.1c-9.46,5.31-14.76,12.76-16.08,23.01-.17,1.35.18,2.08,1.35,2.76,5.11,2.97,10.17,6.04,15.25,9.07.31.19.69.27,1.53.6-2.28-3.08-2.54-6.1-2.46-9.27.2-7.77.28-15.55.4-23.32.01-.77,0-1.53,0-2.85ZM1618.96,100.2c.04-7.32-5.79-13.23-13.13-13.29-7.35-.06-13.34,5.75-13.41,13.02-.07,7.43,5.82,13.39,13.24,13.4,7.35,0,13.26-5.82,13.3-13.13Z"/><path class="cls-7" d="M1617.6,100.07c.02,6.5-5.24,11.83-11.75,11.91-6.62.07-12.05-5.24-12.08-11.81-.03-6.57,5.37-11.94,11.98-11.92,6.49.02,11.83,5.35,11.86,11.82ZM1603.64,101.73c-.33-4.06.94-5.13,5-4.23.2-2.87-1.47-4.98-4.15-5.23-2.45-.23-4.64,1.42-5.02,3.78-.45,2.79,1.26,5.13,4.17,5.68ZM1611.09,107.37c.76-1.21,1.49-1.86,1.46-2.48-.03-.52-1.02-1.47-1.43-1.4-.63.11-1.51.89-1.59,1.48-.08.55.75,1.22,1.56,2.39Z"/></g><g id="Rec"><g id="REC"><path class="cls-8" d="M1431.57,857.83c-49.17,0-98.35,0-147.52,0-5,0-4.86.69-4.74-4.73.05-2.38-1.14-5.4.69-6.98,1.58-1.36,4.44-.42,6.73-.42,93.48.02,186.96.06,280.44.1q4.78,0,4.79-4.81c.03-46.61.06-93.22.07-139.82,0-5.81.07-5.18,5.26-5.19q6.69-.01,6.69,6.67c-.02,50.19-.04,100.39-.07,150.58,0,5.25.33,4.69-4.82,4.69-49.17,0-98.35,0-147.52,0v-.09Z"/><path class="cls-8" d="M491.06,248.8c49.18,0,98.35,0,147.53,0,5.33,0,4.82-.33,4.84,4.68,0,1.79-.02,3.59,0,5.38,0,1.25-.55,1.9-1.84,1.89-1.15-.01-2.3.01-3.46.01-94,0-188,0-282,0-6.18,0-5.44-.67-5.45,5.6-.02,46.48,0,92.97-.01,139.45,0,5.11.49,4.81-4.75,4.75-8-.09-7.17,1.28-7.17-7.09-.02-49.81,0-99.63-.02-149.44,0-5.8,0-5.25,5.2-5.25,49.05,0,98.1,0,147.15,0Z"/><path class="cls-8" d="M491.4,857.93c-49.16,0-98.32,0-147.48,0-5.2,0-4.74.45-4.75-4.74-.02-14.21.13-28.42-.06-42.63-.48-36.47-.35-72.95-.41-109.42,0-5.82.09-5.14,5.29-5.16q6.66-.01,6.66,6.7c.01,46.08.02,92.16.04,138.25,0,5.31-.42,4.88,5.05,4.87,94.48-.04,188.96-.08,283.43-.12.64,0,1.28.04,1.92,0,1.58-.1,2.38.51,2.33,2.2-.07,2.69-.03,5.38-.02,8.06,0,1.26-.56,1.9-1.85,1.88-1.15-.01-2.3.02-3.46.02-48.9,0-97.81,0-146.71,0v.09Z"/><path class="cls-8" d="M1425.55,260.87c-47.25,0-94.51,0-141.76,0-.51,0-1.02.01-1.54,0-2.89-.08-2.91-.08-2.97-3.07-.04-2.05.03-4.1-.01-6.15-.03-1.56.51-2.44,2.21-2.33.89.06,1.79,0,2.69,0,23.31,0,46.62.17,69.92-.06,74.78-.74,149.56-.26,224.33-.46,6.31-.02,5.47-.63,5.48,5.56.04,50.45.06,100.9.07,151.35,0,5.34.55,4.84-5.02,4.87-1.41,0-2.82-.07-4.22.01-2.04.12-2.7-.89-2.69-2.78.03-5.12,0-10.24,0-15.37-.02-41.74-.04-83.49-.06-125.23,0-.77,0-1.54,0-2.3-.02-4.14-.02-4.16-4.27-4.16-34.45.01-68.9.03-103.34.04-12.93,0-25.87,0-38.8,0v.06Z"/><path class="cls-8" d="M420.71,327.61c-11.13,0-22.26,0-33.4,0-.64,0-1.28,0-1.92,0-3.83-.03-3.85-.03-3.86-3.73-.02-7.04,0-14.07,0-21.11,0-4.09-.02-8.19,0-12.28.02-3.4.05-3.43,3.34-3.45,6.01-.03,12.03,0,18.04,0,17.02,0,34.03,0,51.05,0,.64,0,1.28,0,1.92,0q3.86.03,3.88,4.07c0,1.79.04,3.58,0,5.37-.03,1.43.56,2.16,2.03,2.07.13,0,.26,0,.38,0q5.05.32,5.05,5.22c0,3.2-.06,6.4.02,9.59.05,1.88-.49,2.72-2.58,2.77-4.9.1-4.9.21-4.9,4.95q0,6.53-6.44,6.53c-10.88,0-21.75,0-32.63,0ZM420.63,321.48c9.98,0,19.95.02,29.93-.01,2.98,0,3.05-.07,3.06-2.96.04-7.29.04-14.58,0-21.87-.02-2.72-.13-2.84-2.82-2.84-20.08-.03-40.16-.03-60.24,0-2.8,0-2.86.1-2.87,3.18-.04,7.03-.03,14.07,0,21.1.01,3.35.05,3.39,3.4,3.4,9.85.02,19.7,0,29.54,0Z"/><path class="cls-3" d="M1543.37,309.46c.59,10.29-8.5,21.44-21.17,21.08-12.39-.35-20.9-8.88-20.98-21.78-.08-13.39,11.56-21.58,21.14-21.5,10.5.09,21.58,8.91,21.01,22.2Z"/><path class="cls-3" d="M1406.12,311.12c4.64,4.47,6.71,10.34,9.61,16.21-3.89.53-7.3.2-10.7.26-1.38.03-1.97-.92-2.53-1.99-1.6-3.05-3.24-6.09-4.88-9.12-.42-.78-.79-1.67-1.42-2.25-.8-.72-1.59-1.98-2.86-1.52-1.24.45-.67,1.78-.69,2.72-.07,3.19-.11,6.4,0,9.59.07,2.04-.8,2.72-2.73,2.62-2.04-.1-4.09-.09-6.14,0-1.83.08-2.48-.71-2.45-2.5.07-4.73.02-9.46.02-14.19,0-5.75-.04-11.51.02-17.26.02-2.71.11-2.79,2.84-2.81,6.01-.04,12.02-.06,18.03.02,5.94.09,9.28,2.42,10.44,7.09,1.38,5.56-.32,9.37-5.56,12.45-.32.19-.61.44-.96.69ZM1397.04,298.41s0,.05,0,.08c-1.01,0-2.02-.04-3.03.01-.68.04-1.09.45-1.31,1.14-1.33,4.11.39,6.29,4.63,5.75.99-.13,1.98-.44,2.91-.79,1.81-.69,1.82-2.25,1.64-3.81-.17-1.49-1.14-2.18-2.57-2.28-.76-.05-1.52-.07-2.27-.1Z"/><path class="cls-3" d="M1435.4,327.61c-3.84,0-7.68-.07-11.52.03-1.96.05-2.71-.65-2.7-2.66.06-10.49.06-20.99,0-31.48-.01-1.98.69-2.69,2.67-2.68,7.93.07,15.87.08,23.8,0,2.02-.02,2.82.75,2.62,2.7-.01.13,0,.26,0,.38,0,5.2.19,4.61-4.49,4.63-3.58.02-7.17-.05-10.75.03-2.33.05-2.57.38-2.55,2.74.02,2.31.27,2.66,2.63,2.7,3.58.07,7.17-.02,10.75.04,2.78.04,2.82.13,2.93,2.75.03.64.02,1.28,0,1.92-.09,2.77-.09,2.83-2.78,2.87-3.58.06-7.17-.03-10.75.03-2.68.05-2.7.12-2.79,2.9-.13,3.96-.02,4.09,3.94,4.11,3.84.02,7.68-.04,11.52.02,2.57.05,2.93.38,2.98,2.87.13,6.87.08,6.08-5.54,6.09-3.33,0-6.65,0-9.98,0Z"/><path class="cls-3" d="M1467.94,309.54c0,1.41-.12,2.82.02,4.22.33,3.09,2.28,5.25,4.88,5.59,3.56.47,5.73-.69,7.1-3.81.2-.46.36-.96.45-1.46.33-1.9,1.48-1.92,2.78-1.12,1.56.96,3.28,1.34,5,1.85,2.12.63,2.42,1.27,1.68,3.39-2.23,6.4-6.98,9.53-13.53,10.14-3.21.3-6.38-.18-9.41-1.28-6.41-2.31-9.25-7.49-10.14-13.74-.59-4.14-.39-8.33.88-12.51,1.72-5.67,7.98-10.67,14.46-10.7,1.66,0,3.33-.07,4.99.04,5.89.39,10.87,4.32,12.6,9.7.37,1.15.07,1.73-.99,1.98-2.35.57-4.72,1.09-7.08,1.62-1.01.23-1.25-.59-1.68-1.22-2.21-3.19-4.13-4.09-6.93-3.32-3.2.89-4.88,3.07-5.12,6.79-.08,1.27-.01,2.56-.01,3.83h.07Z"/><path class="cls-8" d="M399.22,307.38c0,3.32.04,6.63-.01,9.95-.05,2.66-.1,2.67-2.86,2.75-1.4.04-2.81.04-4.21,0-2.8-.07-2.88-.09-2.9-2.71-.05-6.63-.05-13.26,0-19.89.02-2.66.1-2.68,2.86-2.75,1.4-.04,2.81-.04,4.21,0,2.83.08,2.87.09,2.9,3.1.04,3.19,0,6.38,0,9.56Z"/><path class="cls-8" d="M410.74,307.48c0,3.44-.04,6.89.02,10.33.03,1.59-.57,2.2-2.22,2.31-7.8.55-7.8.59-7.8-7.05,0-5.23.06-10.46-.03-15.68-.03-1.94.6-2.74,2.62-2.69,9.07.21,7.19-1.21,7.4,7.05.05,1.91,0,3.83,0,5.74h0Z"/><path class="cls-8" d="M422.27,307.72c0,3.32-.06,6.63.03,9.95.05,1.82-.68,2.52-2.47,2.43-1.78-.09-3.57-.08-5.35,0-1.68.07-2.22-.72-2.21-2.3.04-6.89.05-13.77,0-20.66-.02-1.82.68-2.53,2.48-2.43,1.78.09,3.57.08,5.35,0,1.68-.07,2.23.73,2.2,2.31-.05,3.57-.02,7.14-.02,10.71Z"/><path class="cls-8" d="M433.8,307.4c0,3.19.03,6.38,0,9.56-.04,3.02-.07,3.13-2.89,3.1-8.61-.1-6.94,1.24-7.09-6.93-.09-5.1-.04-10.2,0-15.3.02-3.02.07-3.13,2.89-3.1,8.59.1,6.91-1.23,7.1,6.93.04,1.91,0,3.83,0,5.74Z"/></g><rect id="CADRE_ROUGE" class="cls-11" x="293.24" y="206.46" width="1341.81" height="694.92"/></g></svg>